<?xml version="1.0" encoding="UTF-8" standalone="no"?>
<!-- Created with Inkscape (http://www.inkscape.org/) -->

<svg
   xmlns:dc="http://purl.org/dc/elements/1.1/"
   xmlns:cc="http://creativecommons.org/ns#"
   xmlns:rdf="http://www.w3.org/1999/02/22-rdf-syntax-ns#"
   xmlns:svg="http://www.w3.org/2000/svg"
   xmlns="http://www.w3.org/2000/svg"
   xmlns:sodipodi="http://sodipodi.sourceforge.net/DTD/sodipodi-0.dtd"
   xmlns:inkscape="http://www.inkscape.org/namespaces/inkscape"
   width="744.09448819"
   height="1052.3622047"
   id="svg2"
   version="1.1"
   inkscape:version="0.48.4 r9939"
   sodipodi:docname="New document 1">
  <defs
     id="defs4" />
  <sodipodi:namedview
     id="base"
     pagecolor="#ffffff"
     bordercolor="#666666"
     borderopacity="1.0"
     inkscape:pageopacity="0.0"
     inkscape:pageshadow="2"
     inkscape:zoom="0.49497475"
     inkscape:cx="558.10053"
     inkscape:cy="537.892"
     inkscape:document-units="px"
     inkscape:current-layer="layer1"
     showgrid="false"
     inkscape:window-width="1366"
     inkscape:window-height="718"
     inkscape:window-x="0"
     inkscape:window-y="25"
     inkscape:window-maximized="1" />
  <metadata
     id="metadata7">
    <rdf:RDF>
      <cc:Work
         rdf:about="">
        <dc:format>image/svg+xml</dc:format>
        <dc:type
           rdf:resource="http://purl.org/dc/dcmitype/StillImage" />
        <dc:title></dc:title>
      </cc:Work>
    </rdf:RDF>
  </metadata>
  <g
     inkscape:label="Layer 1"
     inkscape:groupmode="layer"
     id="layer1">
    <g
       id="g4098"
       transform="matrix(1.5959422,0,0,1.5959422,-256.41715,-365.03706)">
      <path
         inkscape:connector-curvature="0"
         id="path3082"
         d="m 182.83761,397.78333 0,264.65997 422.24376,0"
         style="fill:none;stroke:#000000;stroke-width:1px;stroke-linecap:butt;stroke-linejoin:miter;stroke-opacity:1" />
      <g
         transform="matrix(0.99736715,0.07251735,-0.07251735,0.99736715,26.352129,-14.843893)"
         id="g3104">
        <path
           style="fill:none;stroke:#000000;stroke-width:1px;stroke-linecap:butt;stroke-linejoin:miter;stroke-opacity:1"
           d="m 188.57143,429.50504 c 0,0 -1.42857,-16.42857 15,-17.14286 16.42857,-0.71428 45,-0.71428 70.71428,15.71429 L 610.71429,416.6479"
           id="path3084"
           inkscape:connector-curvature="0" />
        <path
           style="fill:none;stroke:#000000;stroke-width:1px;stroke-linecap:butt;stroke-linejoin:miter;stroke-opacity:1"
           d="m 190.71429,459.50504 c 0,0 0.71428,-16.42857 37.14285,-1.42857 L 503.57143,446.6479 c 0,0 5,-15.71429 65,-3.57143 l 42.14286,-2.14286"
           id="path3086"
           inkscape:connector-curvature="0" />
        <path
           style="fill:none;stroke:#000000;stroke-width:1px;stroke-linecap:butt;stroke-linejoin:miter;stroke-opacity:1"
           d="m 193.57143,494.50504 60.71428,-6.42857 c 0,0 15.71429,-25 51.42858,-2.14286 l 73.57142,-4.28571 c 0,0 15,-30 44.28572,-0.71429 l 183.57143,-3.57143"
           id="path3088"
           inkscape:connector-curvature="0" />
        <path
           style="fill:none;stroke:#000000;stroke-width:1px;stroke-linecap:butt;stroke-linejoin:miter;stroke-opacity:1"
           d="m 197.85714,524.50504 92.85715,-3.57143 c 0,0 18.57142,-32.14286 51.42857,-0.71429 l 66.42857,-4.28571 c 0,0 27.85714,-33.57143 51.42857,-2.14286 l 145.71429,-3.57143"
           id="path3090"
           inkscape:connector-curvature="0" />
        <path
           style="fill:none;stroke:#000000;stroke-width:1px;stroke-linecap:butt;stroke-linejoin:miter;stroke-opacity:1"
           d="m 198.57143,545.21932 123.57143,-2.14285 c 0,0 7.85714,-19.28572 34.28571,-16.42857 l 17.85714,-0.71429 c 0,0 0.71429,-7.85714 19.28572,18.57143 l 48.57143,-3.57143 c 0,0 7.85714,-19.28571 27.85714,-15.71429 l 31.42857,0.71429 c 0,0 0,8.57143 17.85714,12.14286 L 605,535.93361"
           id="path3092"
           inkscape:connector-curvature="0" />
        <path
           style="fill:none;stroke:#000000;stroke-width:1px;stroke-linecap:butt;stroke-linejoin:miter;stroke-opacity:1"
           d="m 200,575.21932 175.71429,-10 c 0,0 5.71428,-22.85714 30,-1.42857 l 92.85714,-2.85714 c 0,0 5.71428,-22.85714 30.71428,0.71429 L 600,562.36218"
           id="path3094"
           inkscape:connector-curvature="0" />
        <path
           style="fill:none;stroke:#000000;stroke-width:1px;stroke-linecap:butt;stroke-linejoin:miter;stroke-opacity:1"
           d="m 201.42857,600.93361 325,-16.42857 c 0,0 7.85714,-31.42857 30.71429,-1.42857 l 44.28571,0.71428"
           id="path3096"
           inkscape:connector-curvature="0" />
        <path
           style="fill:none;stroke:#000000;stroke-width:1px;stroke-linecap:butt;stroke-linejoin:miter;stroke-opacity:1"
           d="m 205.71429,621.6479 338.57142,-23.57143 c 0,0 15,-19.28572 25,1.42857 l 32.14286,0"
           id="path3098"
           inkscape:connector-curvature="0" />
        <path
           style="fill:none;stroke:#000000;stroke-width:1px;stroke-linecap:butt;stroke-linejoin:miter;stroke-opacity:1"
           d="m 209.28571,640.93361 c 0,0 4.28572,-9.28571 10.71429,-5.71428 6.42857,3.57142 7.85714,11.42857 12.85714,5 5,-6.42858 4.28572,-5.71429 11.42857,0 7.14286,5.71428 16.42858,-7.14286 15,-7.14286 -1.42857,0 7.14286,13.57143 14.28572,11.42857 7.14286,-2.14286 3.57143,-17.85714 11.42857,-12.85714 7.85714,5 9.28571,15 15.71429,7.14285 6.42857,-7.85714 5.71428,-10.71428 15,-3.57142 9.28571,7.14285 3.57142,10.71428 10,2.14285 6.42857,-8.57143 10.71428,-7.85714 16.42857,-3.57143 5.71428,4.28572 2.85714,7.14286 11.42857,-0.71428 8.57143,-7.85714 0.71428,-8.57143 12.14286,-2.14286 11.42857,6.42857 2.85714,10 11.42857,2.85714 8.57143,-7.14285 4.28571,-8.57142 15,-2.85714 10.71428,5.71429 7.14285,10.71429 15.71428,2.14286 8.57143,-8.57143 1.42857,-12.14286 14.28572,-5.71429 12.85714,6.42857 5.71428,9.28572 15,1.42857 9.28571,-7.85714 7.14285,-8.57142 11.42857,-7.14285 4.28571,1.42857 5,11.42857 13.57143,10.71428 8.57143,-0.71428 2.14285,-12.85714 10.71428,-8.57143 8.57143,4.28572 7.85715,9.28572 12.85715,3.57143 5,-5.71428 -1.42858,-9.28571 8.57142,-4.28571 10,5 3.57143,10 10.71429,5 7.14286,-5 1.42857,-11.42857 8.57143,-6.42857 7.14286,5 5,10 9.28571,5 4.28572,-5 1.42857,-9.28572 7.85715,-5 6.42857,4.28571 5.71428,7.14285 9.28571,2.85714 3.57143,-4.28571 3.57143,-4.28571 5.71429,-1.42857 2.14285,2.85714 8.57142,-32.14286 31.42857,0 l 23.57143,-0.71429"
           id="path3102"
           inkscape:connector-curvature="0" />
      </g>
      <text
         transform="matrix(0.99930882,0.03717371,-0.03717371,0.99930882,0,0)"
         sodipodi:linespacing="125%"
         id="text3115"
         y="411.82025"
         x="327.55615"
         style="font-size:40px;font-style:normal;font-weight:normal;line-height:125%;letter-spacing:0px;word-spacing:0px;fill:#000000;fill-opacity:1;stroke:none;font-family:Sans"
         xml:space="preserve"><tspan
           style="font-size:14px"
           y="411.82025"
           x="327.55615"
           id="tspan3117"
           sodipodi:role="line">analyse og design</tspan></text>
      <text
         transform="matrix(0.99930882,0.03717371,-0.03717371,0.99930882,0,0)"
         sodipodi:linespacing="125%"
         id="text3115-3"
         y="442.93301"
         x="319.97632"
         style="font-size:40px;font-style:normal;font-weight:normal;line-height:125%;letter-spacing:0px;word-spacing:0px;fill:#000000;fill-opacity:1;stroke:none;font-family:Sans"
         xml:space="preserve"><tspan
           style="font-size:14px"
           y="442.93301"
           x="319.97632"
           id="tspan3117-1"
           sodipodi:role="line">introduktion</tspan></text>
      <text
         transform="matrix(0.99930882,0.03717371,-0.03717371,0.99930882,0,0)"
         sodipodi:linespacing="125%"
         id="text3115-2"
         y="475.73224"
         x="335.00308"
         style="font-size:40px;font-style:normal;font-weight:normal;line-height:125%;letter-spacing:0px;word-spacing:0px;fill:#000000;fill-opacity:1;stroke:none;font-family:Sans"
         xml:space="preserve"><tspan
           style="font-size:14px"
           y="475.73224"
           x="335.00308"
           id="tspan3117-9"
           sodipodi:role="line">teori</tspan></text>
      <text
         transform="matrix(0.99930882,0.03717371,-0.03717371,0.99930882,0,0)"
         sodipodi:linespacing="125%"
         id="text3115-5"
         y="511.26682"
         x="356.37949"
         style="font-size:40px;font-style:normal;font-weight:normal;line-height:125%;letter-spacing:0px;word-spacing:0px;fill:#000000;fill-opacity:1;stroke:none;font-family:Sans"
         xml:space="preserve"><tspan
           style="font-size:14px"
           y="511.26682"
           x="356.37949"
           id="tspan3117-97"
           sodipodi:role="line">design</tspan></text>
      <text
         transform="matrix(0.99884688,0.04800948,-0.04800948,0.99884688,0,0)"
         sodipodi:linespacing="125%"
         id="text3115-0"
         y="530.00262"
         x="218.93494"
         style="font-size:40px;font-style:normal;font-weight:normal;line-height:125%;letter-spacing:0px;word-spacing:0px;fill:#000000;fill-opacity:1;stroke:none;font-family:Sans"
         xml:space="preserve"><tspan
           style="font-size:14px"
           y="530.00262"
           x="218.93494"
           id="tspan3117-10"
           sodipodi:role="line">implementation</tspan></text>
      <text
         transform="matrix(0.99930882,0.03717371,-0.03717371,0.99930882,0,0)"
         sodipodi:linespacing="125%"
         id="text3115-27"
         y="559.02026"
         x="325.38681"
         style="font-size:40px;font-style:normal;font-weight:normal;line-height:125%;letter-spacing:0px;word-spacing:0px;fill:#000000;fill-opacity:1;stroke:none;font-family:Sans"
         xml:space="preserve"><tspan
           style="font-size:14px"
           y="559.02026"
           x="325.38681"
           id="tspan3117-7"
           sodipodi:role="line">test</tspan></text>
      <text
         transform="matrix(0.99930882,0.03717371,-0.03717371,0.99930882,0,0)"
         sodipodi:linespacing="125%"
         id="text3115-6"
         y="588.28143"
         x="218.66447"
         style="font-size:40px;font-style:normal;font-weight:normal;line-height:125%;letter-spacing:0px;word-spacing:0px;fill:#000000;fill-opacity:1;stroke:none;font-family:Sans"
         xml:space="preserve"><tspan
           style="font-size:14px"
           y="588.28143"
           x="218.66447"
           id="tspan3117-99"
           sodipodi:role="line">refleksion</tspan></text>
      <text
         transform="matrix(0.99930882,0.03717371,-0.03717371,0.99930882,0,0)"
         sodipodi:linespacing="125%"
         id="text3115-61"
         y="607.29675"
         x="226.52901"
         style="font-size:40px;font-style:normal;font-weight:normal;line-height:125%;letter-spacing:0px;word-spacing:0px;fill:#000000;fill-opacity:1;stroke:none;font-family:Sans"
         xml:space="preserve"><tspan
           style="font-size:14px"
           y="607.29675"
           x="226.52901"
           id="tspan3117-5"
           sodipodi:role="line">konklusion</tspan></text>
      <text
         transform="matrix(0.99991658,-0.01291639,0.01291639,0.99991658,0,0)"
         sodipodi:linespacing="125%"
         id="text3115-61-8"
         y="638.82709"
         x="312.12592"
         style="font-size:40px;font-style:normal;font-weight:normal;line-height:125%;letter-spacing:0px;word-spacing:0px;fill:#000000;fill-opacity:1;stroke:none;font-family:Sans"
         xml:space="preserve"><tspan
           style="font-size:14px"
           y="638.82709"
           x="312.12592"
           id="tspan3117-5-5"
           sodipodi:role="line">rette fase</tspan></text>
      <path
         inkscape:connector-curvature="0"
         id="path3224"
         d="m 272.74119,396.77318 0,264.65997"
         style="fill:none;stroke:#000000;stroke-width:1;stroke-linecap:butt;stroke-linejoin:miter;stroke-miterlimit:4;stroke-opacity:1;stroke-dasharray:1, 3;stroke-dashoffset:0" />
      <path
         inkscape:connector-curvature="0"
         id="path3226"
         d="m 386.88842,395.76303 0,266.68027"
         style="fill:none;stroke:#000000;stroke-width:1;stroke-linecap:butt;stroke-linejoin:miter;stroke-miterlimit:4;stroke-opacity:1;stroke-dasharray:1, 3;stroke-dashoffset:0" />
      <path
         inkscape:connector-curvature="0"
         id="path3228"
         d="m 492.95444,393.74272 0,266.68028"
         style="fill:none;stroke:#000000;stroke-width:1;stroke-linecap:butt;stroke-linejoin:miter;stroke-miterlimit:4;stroke-opacity:1;stroke-dasharray:1, 3;stroke-dashoffset:0" />
      <path
         inkscape:connector-curvature="0"
         id="path3230"
         d="m 561.64482,662.4433 0,-267.69042"
         style="fill:none;stroke:#000000;stroke-width:1;stroke-linecap:butt;stroke-linejoin:miter;stroke-miterlimit:4;stroke-opacity:1;stroke-dasharray:1, 3;stroke-dashoffset:0" />
      <text
         transform="scale(0.96648303,1.0346793)"
         sodipodi:linespacing="125%"
         id="text4000"
         y="690.03125"
         x="185.13609"
         style="font-size:38.65932083px;font-style:normal;font-weight:normal;line-height:125%;letter-spacing:0px;word-spacing:0px;fill:#000000;fill-opacity:1;stroke:none;font-family:Sans"
         xml:space="preserve"><tspan
           style="font-size:15.4637289px"
           y="690.03125"
           x="185.13609"
           id="tspan4002"
           sodipodi:role="line">|   simple stuff, stage 1-3   |</tspan></text>
      <text
         transform="scale(0.7125548,1.4034008)"
         sodipodi:linespacing="125%"
         id="text4000-6"
         y="508.8689"
         x="536.76385"
         style="font-size:28.50219345px;font-style:normal;font-weight:normal;line-height:125%;letter-spacing:0px;word-spacing:0px;fill:#000000;fill-opacity:1;stroke:none;font-family:Sans"
         xml:space="preserve"><tspan
           style="font-size:11.40087795px"
           y="508.8689"
           x="536.76385"
           id="tspan4002-8"
           sodipodi:role="line">|   advanced stuff, resten   |</tspan></text>
      <text
         transform="matrix(0.99930882,0.03717371,-0.03717371,0.99930882,0,0)"
         sodipodi:linespacing="125%"
         id="text3115-58"
         y="672.8504"
         x="198.5304"
         style="font-size:40px;font-style:normal;font-weight:normal;line-height:125%;letter-spacing:0px;word-spacing:0px;fill:#000000;fill-opacity:1;stroke:none;font-family:Sans"
         xml:space="preserve"><tspan
           style="font-size:14px"
           y="672.8504"
           x="198.5304"
           id="tspan3117-93"
           sodipodi:role="line">9/9</tspan></text>
      <text
         transform="matrix(0.99930882,0.03717371,-0.03717371,0.99930882,0,0)"
         sodipodi:linespacing="125%"
         id="text3115-58-0"
         y="666.86053"
         x="280.25735"
         style="font-size:40px;font-style:normal;font-weight:normal;line-height:125%;letter-spacing:0px;word-spacing:0px;fill:#000000;fill-opacity:1;stroke:none;font-family:Sans"
         xml:space="preserve"><tspan
           style="font-size:14px"
           y="666.86053"
           x="280.25735"
           id="tspan3117-93-4"
           sodipodi:role="line">1/10</tspan></text>
      <text
         transform="matrix(0.99930882,0.03717371,-0.03717371,0.99930882,0,0)"
         sodipodi:linespacing="125%"
         id="text3115-58-4"
         y="662.46704"
         x="398.36353"
         style="font-size:40px;font-style:normal;font-weight:normal;line-height:125%;letter-spacing:0px;word-spacing:0px;fill:#000000;fill-opacity:1;stroke:none;font-family:Sans"
         xml:space="preserve"><tspan
           style="font-size:14px"
           y="662.46704"
           x="398.36353"
           id="tspan3117-93-45"
           sodipodi:role="line">1/11</tspan></text>
      <text
         transform="matrix(0.99930882,0.03717371,-0.03717371,0.99930882,0,0)"
         sodipodi:linespacing="125%"
         id="text3115-58-03"
         y="656.54285"
         x="503.27167"
         style="font-size:40px;font-style:normal;font-weight:normal;line-height:125%;letter-spacing:0px;word-spacing:0px;fill:#000000;fill-opacity:1;stroke:none;font-family:Sans"
         xml:space="preserve"><tspan
           style="font-size:14px"
           y="656.54285"
           x="503.27167"
           id="tspan3117-93-2"
           sodipodi:role="line">1/12</tspan></text>
      <text
         transform="matrix(0.99930882,0.03717371,-0.03717371,0.99930882,0,0)"
         sodipodi:linespacing="125%"
         id="text3115-58-2"
         y="655.22107"
         x="565.97662"
         style="font-size:40px;font-style:normal;font-weight:normal;line-height:125%;letter-spacing:0px;word-spacing:0px;fill:#000000;fill-opacity:1;stroke:none;font-family:Sans"
         xml:space="preserve"><tspan
           style="font-size:14px"
           y="655.22107"
           x="565.97662"
           id="tspan3117-93-7"
           sodipodi:role="line">19/12</tspan></text>
      <text
         sodipodi:linespacing="125%"
         id="text4094"
         y="363.03204"
         x="188.89853"
         style="font-size:40px;font-style:normal;font-weight:normal;line-height:125%;letter-spacing:0px;word-spacing:0px;fill:#000000;fill-opacity:1;stroke:none;font-family:Sans"
         xml:space="preserve"><tspan
           y="363.03204"
           x="188.89853"
           id="tspan4096"
           sodipodi:role="line">Tidsplan</tspan></text>
    </g>
  </g>
</svg>
