<?xml version="1.0" encoding="UTF-8" standalone="no"?>
<!-- Created with Inkscape (http://www.inkscape.org/) -->

<svg
   xmlns:dc="http://purl.org/dc/elements/1.1/"
   xmlns:cc="http://creativecommons.org/ns#"
   xmlns:rdf="http://www.w3.org/1999/02/22-rdf-syntax-ns#"
   xmlns:svg="http://www.w3.org/2000/svg"
   xmlns="http://www.w3.org/2000/svg"
   xmlns:sodipodi="http://sodipodi.sourceforge.net/DTD/sodipodi-0.dtd"
   xmlns:inkscape="http://www.inkscape.org/namespaces/inkscape"
   width="120"
   height="74"
   id="svg4029"
   version="1.1"
   inkscape:version="0.48.4 r9939"
   sodipodi:docname="station.pdf">
  <defs
     id="defs4031">
    <inkscape:perspective
       sodipodi:type="inkscape:persp3d"
       inkscape:vp_x="-2.536302 : 30.201968 : 1"
       inkscape:vp_y="0 : 1055.4232 : 0"
       inkscape:vp_z="122.91365 : 30.201968 : 1"
       inkscape:persp3d-origin="60.188678 : 19.647737 : 1"
       id="perspective4737" />
    <inkscape:perspective
       sodipodi:type="inkscape:persp3d"
       inkscape:vp_x="16.773598 : -495.05119 : 1"
       inkscape:vp_y="0 : 1055.4232 : 0"
       inkscape:vp_z="142.22355 : -495.05119 : 1"
       inkscape:persp3d-origin="79.498578 : -505.60542 : 1"
       id="perspective4737-6" />
    <inkscape:perspective
       sodipodi:type="inkscape:persp3d"
       inkscape:vp_x="64.149753 : -429.64382 : 1"
       inkscape:vp_y="0 : 1055.4232 : 0"
       inkscape:vp_z="189.59971 : -429.64382 : 1"
       inkscape:persp3d-origin="126.87473 : -440.19805 : 1"
       id="perspective4737-8" />
    <inkscape:perspective
       sodipodi:type="inkscape:persp3d"
       inkscape:vp_x="46.917367 : -475.80424 : 1"
       inkscape:vp_y="0 : 1055.4232 : 0"
       inkscape:vp_z="172.36732 : -475.80424 : 1"
       inkscape:persp3d-origin="109.64235 : -486.35847 : 1"
       id="perspective4737-1" />
    <inkscape:perspective
       sodipodi:type="inkscape:persp3d"
       inkscape:vp_x="48.502413 : 34.905288 : 1"
       inkscape:vp_y="0 : 1055.4232 : 0"
       inkscape:vp_z="173.95237 : 34.905288 : 1"
       inkscape:persp3d-origin="111.22739 : 24.351058 : 1"
       id="perspective4737-5" />
  </defs>
  <sodipodi:namedview
     id="base"
     pagecolor="#ffffff"
     bordercolor="#666666"
     borderopacity="1.0"
     inkscape:pageopacity="0.0"
     inkscape:pageshadow="2"
     inkscape:zoom="2.6982328"
     inkscape:cx="40.145692"
     inkscape:cy="30.016717"
     inkscape:document-units="px"
     inkscape:current-layer="layer1"
     showgrid="false"
     inkscape:window-width="1280"
     inkscape:window-height="753"
     inkscape:window-x="0"
     inkscape:window-y="25"
     inkscape:window-maximized="1"
     showguides="true"
     inkscape:guide-bbox="true" />
  <metadata
     id="metadata4034">
    <rdf:RDF>
      <cc:Work
         rdf:about="">
        <dc:format>image/svg+xml</dc:format>
        <dc:type
           rdf:resource="http://purl.org/dc/dcmitype/StillImage" />
        <dc:title></dc:title>
      </cc:Work>
    </rdf:RDF>
  </metadata>
  <g
     inkscape:label="Layer 1"
     inkscape:groupmode="layer"
     id="layer1"
     transform="translate(0,-978.36218)">
    <g
       sodipodi:type="inkscape:box3d"
       style="fill:#787878;fill-opacity:1;stroke:#000000;stroke-width:1;stroke-linecap:round;stroke-linejoin:round;stroke-miterlimit:4;stroke-opacity:1;stroke-dasharray:none;stroke-dashoffset:0"
       id="g3076"
       inkscape:perspectiveID="#perspective4737"
       inkscape:corner0="0.047169303 : 0.019424106 : 0 : 1"
       inkscape:corner7="-0.0033222686 : -0.00046511599 : 0.15099847 : 1">
      <path
         sodipodi:type="inkscape:box3dside"
         id="path3086"
         style="fill:#787878;fill-opacity:1;fill-rule:evenodd;stroke:#000000;stroke-width:0.93951344;stroke-miterlimit:4;stroke-opacity:1;stroke-dasharray:none"
         inkscape:box3dsidetype="13"
         d="m 57.363258,1032.7078 3.034504,0.5344 8.225145,-1.4581 -2.998695,-0.4055 z" />
      <path
         sodipodi:type="inkscape:box3dside"
         id="path3078"
         style="fill:#787878;fill-opacity:1;fill-rule:evenodd;stroke:#000000;stroke-width:0.93951344;stroke-miterlimit:4;stroke-opacity:1;stroke-dasharray:none"
         inkscape:box3dsidetype="6"
         d="m 57.363258,1012.6618 0,20.046 8.260954,-1.3292 0,-17.5197 z" />
      <path
         sodipodi:type="inkscape:box3dside"
         id="path3088"
         style="fill:#787878;fill-opacity:1;fill-rule:evenodd;stroke:#000000;stroke-width:0.93951344;stroke-miterlimit:4;stroke-opacity:1;stroke-dasharray:none"
         inkscape:box3dsidetype="11"
         d="m 65.624212,1013.8589 2.998695,-0.3653 0,18.2905 -2.998695,-0.4055 z" />
      <path
         sodipodi:type="inkscape:box3dside"
         id="path3080"
         style="fill:#787878;fill-opacity:1;fill-rule:evenodd;stroke:#000000;stroke-width:0.93951344;stroke-miterlimit:4;stroke-opacity:1;stroke-dasharray:none"
         inkscape:box3dsidetype="5"
         d="m 57.363258,1012.6618 3.034504,-0.4812 8.225145,1.313 -2.998695,0.3653 z" />
      <path
         sodipodi:type="inkscape:box3dside"
         id="path3084"
         style="fill:#787878;fill-opacity:1;fill-rule:evenodd;stroke:#000000;stroke-width:0.93951344;stroke-miterlimit:4;stroke-opacity:1;stroke-dasharray:none"
         inkscape:box3dsidetype="14"
         d="m 60.397762,1012.1806 0,21.0616 8.225145,-1.4581 0,-18.2905 z" />
      <path
         sodipodi:type="inkscape:box3dside"
         id="path3082"
         style="fill:#787878;fill-opacity:1;fill-rule:evenodd;stroke:#000000;stroke-width:0.93951344;stroke-miterlimit:4;stroke-opacity:1;stroke-dasharray:none"
         inkscape:box3dsidetype="3"
         d="m 57.363258,1012.6618 3.034504,-0.4812 0,21.0616 -3.034504,-0.5344 z" />
    </g>
    <g
       style="stroke:#000000;stroke-opacity:1"
       id="g4133"
       transform="translate(-2,0)">
      <path
         inkscape:connector-curvature="0"
         transform="translate(0,992.36218)"
         id="path3885"
         d="m 61.700584,21.952651 c -0.688467,-0.303219 -1.455069,-0.343465 -2.263059,-0.07121 -2.986535,1.006319 -5.4076,5.901016 -5.4076,10.932611 l 0,0 c 0,5.031595 2.421065,8.294726 5.4076,7.288407 0.811399,-0.273403 1.58106,-0.833819 2.271769,-1.606016"
         style="fill:none;stroke:#000000;stroke-width:1.37199998;stroke-linecap:round;stroke-miterlimit:4;stroke-opacity:1;stroke-dasharray:none" />
      <path
         transform="matrix(-0.05945085,0.02003208,0,0.12923923,70.221854,968.34266)"
         d="m 191.42391,395.5105 c 0,4.32366 -4.5226,7.82868 -10.10152,7.82868 -5.57892,0 -10.10153,-3.50502 -10.10153,-7.82868 0,-4.32366 4.52261,-7.82868 10.10153,-7.82868 5.57892,0 10.10152,3.50502 10.10152,7.82868 z"
         sodipodi:ry="7.8286824"
         sodipodi:rx="10.101525"
         sodipodi:cy="395.5105"
         sodipodi:cx="181.32239"
         id="path3767-3-3"
         style="fill:#000000;fill-opacity:1;stroke:#000000;stroke-width:1;stroke-miterlimit:4;stroke-opacity:1;stroke-dasharray:none"
         sodipodi:type="arc" />
      <path
         sodipodi:nodetypes="cc"
         inkscape:connector-curvature="0"
         id="path3769-1-6"
         d="m 59.436183,1023.1724 c -3.095121,-2.4151 -3.21972,-8.0729 -4.782363,-15.0854"
         style="fill:none;stroke:#000000;stroke-width:1.37220609;stroke-linecap:butt;stroke-linejoin:round;stroke-miterlimit:4;stroke-opacity:1;stroke-dasharray:none" />
      <path
         transform="matrix(-0.10100474,0.03403375,0,0.17261136,59.196064,949.84831)"
         d="m 240.41631,426.82523 c 0,29.14985 -23.96982,52.78047 -53.53809,52.78047 -29.56827,0 -53.53809,-23.63062 -53.53809,-52.78047 0,-29.14985 23.96982,-52.78048 53.53809,-52.78048 29.56827,0 53.53809,23.63063 53.53809,52.78048 z"
         sodipodi:ry="52.780472"
         sodipodi:rx="53.538086"
         sodipodi:cy="426.82523"
         sodipodi:cx="186.87822"
         id="path2997-5-4-3"
         style="fill:none;stroke:#000000;stroke-width:10.39235115;stroke-miterlimit:4;stroke-opacity:1;stroke-dasharray:none"
         sodipodi:type="arc" />
      <path
         transform="matrix(-0.05945085,0.02003208,0,0.12923923,50.993455,974.90172)"
         d="m 191.42391,395.5105 c 0,4.32366 -4.5226,7.82868 -10.10152,7.82868 -5.57892,0 -10.10153,-3.50502 -10.10153,-7.82868 0,-4.32366 4.52261,-7.82868 10.10153,-7.82868 5.57892,0 10.10152,3.50502 10.10152,7.82868 z"
         sodipodi:ry="7.8286824"
         sodipodi:rx="10.101525"
         sodipodi:cy="395.5105"
         sodipodi:cx="181.32239"
         id="path3767-9-4-4"
         style="fill:#000000;fill-opacity:1;stroke:#000000;stroke-width:1;stroke-miterlimit:4;stroke-opacity:1;stroke-dasharray:none"
         sodipodi:type="arc" />
      <path
         sodipodi:nodetypes="cc"
         inkscape:connector-curvature="0"
         id="path3807-8-8"
         d="m 40.106894,1029.9553 c 0.480563,-1.3314 5.820145,-14.6453 5.820145,-14.6453"
         style="fill:none;stroke:#000000;stroke-width:1.37220609;stroke-linecap:butt;stroke-linejoin:miter;stroke-miterlimit:4;stroke-opacity:1;stroke-dasharray:none" />
      <path
         sodipodi:nodetypes="cc"
         inkscape:connector-curvature="0"
         id="path3809-8-0"
         d="m 45.66006,1015.5798 9.824832,-3.4904"
         style="fill:none;stroke:#000000;stroke-width:1.37220609;stroke-linecap:butt;stroke-linejoin:miter;stroke-miterlimit:4;stroke-opacity:1;stroke-dasharray:none" />
      <path
         sodipodi:nodetypes="cc"
         inkscape:connector-curvature="0"
         id="path3811-4-0"
         d="m 48.863808,1029.7934 c -0.320374,-1.1515 -3.470727,-17.0922 -3.470727,-17.0922"
         style="fill:none;stroke:#000000;stroke-width:1.37220609;stroke-linecap:butt;stroke-linejoin:miter;stroke-miterlimit:4;stroke-opacity:1;stroke-dasharray:none" />
      <path
         transform="matrix(-0.09908474,0.03338681,0,0.21539872,66.674197,937.97721)"
         d="m 191.42391,395.5105 c 0,4.32366 -4.5226,7.82868 -10.10152,7.82868 -5.57892,0 -10.10153,-3.50502 -10.10153,-7.82868 0,-4.32366 4.52261,-7.82868 10.10153,-7.82868 5.57892,0 10.10152,3.50502 10.10152,7.82868 z"
         sodipodi:ry="7.8286824"
         sodipodi:rx="10.101525"
         sodipodi:cy="395.5105"
         sodipodi:cx="181.32239"
         id="path3767-9-3-0-1"
         style="fill:#000000;fill-opacity:1;stroke:#000000;stroke-width:1;stroke-miterlimit:4;stroke-opacity:1;stroke-dasharray:none"
         sodipodi:type="arc" />
      <path
         sodipodi:nodetypes="cc"
         inkscape:connector-curvature="0"
         id="path3831-7-7"
         d="m 48.917205,1029.4156 -8.756915,0.2519"
         style="fill:none;stroke:#000000;stroke-width:1.37220609;stroke-linecap:butt;stroke-linejoin:miter;stroke-miterlimit:4;stroke-opacity:1;stroke-dasharray:none" />
      <path
         sodipodi:nodetypes="cc"
         inkscape:connector-curvature="0"
         id="path3833-6-1"
         d="m 55.591683,1013.9426 -6.674478,15.2031"
         style="fill:none;stroke:#000000;stroke-width:1.37220609;stroke-linecap:butt;stroke-linejoin:miter;stroke-miterlimit:4;stroke-opacity:1;stroke-dasharray:none" />
      <path
         sodipodi:nodetypes="cccc"
         inkscape:connector-curvature="0"
         id="path3835-6-3"
         d="m 54.483671,1008.7237 0.62745,-2.2657 -0.961092,-1.1155 -1.973532,0.665"
         style="fill:none;stroke:#000000;stroke-width:0.96054429;stroke-linecap:butt;stroke-linejoin:miter;stroke-miterlimit:4;stroke-opacity:1;stroke-dasharray:none" />
      <path
         sodipodi:nodetypes="ccc"
         inkscape:connector-curvature="0"
         id="path3837-4-0"
         d="m 48.650226,1010.884 -5.76675,1.6732 c -0.89686,3.7311 7.19641,-1.1608 5.76675,-1.6732 z"
         style="fill:#000000;fill-opacity:1;stroke:#000000;stroke-width:0.13722061px;stroke-linecap:round;stroke-linejoin:round;stroke-opacity:1" />
      <g
         style="stroke:#000000;stroke-opacity:1"
         transform="matrix(-0.10571834,0.03562201,0,0.17811003,85.17297,925.38943)"
         id="g3873-2-2">
        <path
           style="fill:none;stroke:#000000;stroke-width:5;stroke-linecap:butt;stroke-linejoin:miter;stroke-miterlimit:4;stroke-opacity:1;stroke-dasharray:none"
           d="m 345.85995,520.04769 4.54569,21.71827"
           id="path3839-6-9"
           inkscape:connector-curvature="0"
           sodipodi:nodetypes="cc" />
        <path
           style="fill:none;stroke:#000000;stroke-width:5;stroke-linecap:butt;stroke-linejoin:miter;stroke-miterlimit:4;stroke-opacity:1;stroke-dasharray:none"
           d="m 343.45467,540.63325 13.3508,-0.3265"
           id="path3841-6-6"
           inkscape:connector-curvature="0"
           sodipodi:nodetypes="cc" />
      </g>
      <g
         id="g3873-0-2-2"
         style="stroke:#000000;stroke-opacity:1;display:inline"
         transform="matrix(0.10571834,-0.03562201,0,-0.17811003,12.402348,1133.3091)">
        <path
           style="fill:none;stroke:#000000;stroke-width:5;stroke-linecap:butt;stroke-linejoin:miter;stroke-miterlimit:4;stroke-opacity:1;stroke-dasharray:none"
           d="m 345.85995,520.04769 4.54569,21.71827"
           id="path3839-2-3-0"
           inkscape:connector-curvature="0"
           sodipodi:nodetypes="cc" />
        <path
           style="fill:none;stroke:#000000;stroke-width:5;stroke-linecap:butt;stroke-linejoin:miter;stroke-miterlimit:4;stroke-opacity:1;stroke-dasharray:none"
           d="m 343.45467,540.63325 13.3508,-0.3265"
           id="path3841-9-5-2"
           inkscape:connector-curvature="0"
           sodipodi:nodetypes="cc" />
      </g>
    </g>
    <path
       style="fill:#ffffff;fill-opacity:1;stroke:#000000;stroke-width:0.54993087px;stroke-linecap:butt;stroke-linejoin:round;stroke-opacity:1"
       d="m 4.2749651,1008.5481 c 0,0.6133 0.00473,27.4969 0.00473,27.4969 l 5.7191925,6.0422 14.0038154,-5.7242 0.263584,-19.455 z"
       id="path5345"
       inkscape:connector-curvature="0"
       sodipodi:nodetypes="cccccc" />
    <rect
       style="fill:#ffffff;fill-opacity:1;stroke:#000000;stroke-width:0.54993087;stroke-linecap:butt;stroke-linejoin:round;stroke-miterlimit:4;stroke-opacity:1;stroke-dasharray:none"
       id="rect5325"
       width="15.379394"
       height="15.379393"
       x="-373.78183"
       y="936.57501"
       transform="matrix(0.92718386,-0.37460659,0.37460659,0.92718386,0,0)" />
    <path
       style="fill:none;stroke:#000000;stroke-width:0.54993087px;stroke-linecap:butt;stroke-linejoin:miter;stroke-opacity:1"
       d="m 10.006869,1022.6693 0,19.2485"
       id="path5349"
       inkscape:connector-curvature="0"
       sodipodi:nodetypes="cc" />
    <rect
       style="fill:#ffffff;fill-opacity:1;stroke:#000000;stroke-width:0.44105104;stroke-linecap:butt;stroke-linejoin:round;stroke-miterlimit:4;stroke-opacity:1;stroke-dasharray:none"
       id="rect5325-1"
       width="12.334455"
       height="12.334454"
       x="-372.23462"
       y="937.83508"
       transform="matrix(0.92718386,-0.37460659,0.37460659,0.92718386,0,0)" />
    <g
       transform="matrix(0.92718386,-0.37460659,0.37460659,0.92718386,0,0)"
       style="font-size:14.03910065px;font-style:normal;font-weight:normal;line-height:125%;letter-spacing:0px;word-spacing:0px;fill:#000000;fill-opacity:1;stroke:none;font-family:Sans"
       id="text5409">
      <path
         d="m -371.1225,939.67201 0,0.74994 0.4442,0 c 0.14898,0 0.25912,-0.0306 0.33042,-0.0919 0.0722,-0.0622 0.1083,-0.15675 0.1083,-0.2838 0,-0.12796 -0.0361,-0.2221 -0.1083,-0.28242 -0.0713,-0.0612 -0.18144,-0.0919 -0.33042,-0.0919 l -0.4442,0 m 0,-0.8418 0,0.61695 0.40993,0 c 0.13527,10e-6 0.23581,-0.0251 0.30162,-0.0754 0.0667,-0.0512 0.10008,-0.12887 0.10008,-0.23307 0,-0.10328 -0.0334,-0.18052 -0.10008,-0.2317 -0.0658,-0.0512 -0.16635,-0.0768 -0.30162,-0.0768 l -0.40993,0 m -0.27695,-0.22759 0.70744,0 c 0.21114,10e-6 0.37383,0.0439 0.48808,0.13162 0.11425,0.0878 0.17138,0.21251 0.17138,0.37429 0,0.12522 -0.0292,0.22484 -0.0877,0.29887 -0.0585,0.074 -0.14441,0.1202 -0.25775,0.13848 0.13619,0.0292 0.24176,0.0905 0.31671,0.18371 0.0759,0.0923 0.11379,0.20794 0.11379,0.34687 0,0.1828 -0.0622,0.32401 -0.18646,0.42364 -0.1243,0.0996 -0.30116,0.14944 -0.53058,0.14944 l -0.73486,0 0,-2.04692"
         style="font-size:2.80782008px"
         id="path5520"
         inkscape:connector-curvature="0" />
      <path
         d="m -368.89051,939.29087 c -0.13527,0 -0.24221,0.053 -0.32081,0.15904 -0.0786,0.10511 -0.11791,0.24952 -0.11791,0.43323 0,0.18372 0.0388,0.32859 0.11654,0.43461 0.0786,0.10511 0.186,0.15767 0.32218,0.15767 0.13436,0 0.24084,-0.053 0.31945,-0.15904 0.0786,-0.10602 0.1179,-0.25043 0.11791,-0.43324 -1e-5,-0.18188 -0.0393,-0.32584 -0.11791,-0.43186 -0.0786,-0.10694 -0.18509,-0.16041 -0.31945,-0.16041 m 0,-0.21388 c 0.21936,0 0.39165,0.0713 0.51687,0.21388 0.12522,0.14259 0.18783,0.34001 0.18783,0.59227 0,0.25136 -0.0626,0.44878 -0.18783,0.59228 -0.12522,0.14258 -0.29751,0.21388 -0.51687,0.21388 -0.22027,0 -0.39302,-0.0713 -0.51824,-0.21388 -0.1243,-0.1435 -0.18645,-0.34092 -0.18645,-0.59228 0,-0.25226 0.0621,-0.44968 0.18645,-0.59227 0.12522,-0.14258 0.29797,-0.21388 0.51824,-0.21388"
         style="font-size:2.80782008px"
         id="path5522"
         inkscape:connector-curvature="0" />
      <path
         d="m -367.17401,939.29087 c -0.13527,0 -0.24221,0.053 -0.32081,0.15904 -0.0786,0.10511 -0.11791,0.24952 -0.11791,0.43323 0,0.18372 0.0389,0.32859 0.11654,0.43461 0.0786,0.10511 0.186,0.15767 0.32218,0.15767 0.13436,0 0.24084,-0.053 0.31945,-0.15904 0.0786,-0.10602 0.1179,-0.25043 0.11791,-0.43324 -10e-6,-0.18188 -0.0393,-0.32584 -0.11791,-0.43186 -0.0786,-0.10694 -0.18509,-0.16041 -0.31945,-0.16041 m 0,-0.21388 c 0.21936,0 0.39165,0.0713 0.51687,0.21388 0.12522,0.14259 0.18783,0.34001 0.18783,0.59227 0,0.25136 -0.0626,0.44878 -0.18783,0.59228 -0.12522,0.14258 -0.29751,0.21388 -0.51687,0.21388 -0.22027,0 -0.39302,-0.0713 -0.51824,-0.21388 -0.1243,-0.1435 -0.18645,-0.34092 -0.18645,-0.59228 0,-0.25226 0.0621,-0.44968 0.18645,-0.59227 0.12522,-0.14258 0.29797,-0.21388 0.51824,-0.21388"
         style="font-size:2.80782008px"
         id="path5524"
         inkscape:connector-curvature="0" />
      <path
         d="m -366.06212,938.51625 0.25364,0 0,1.25996 0.75268,-0.6622 0.32218,0 -0.81437,0.71841 0.84865,0.81712 -0.32904,0 -0.7801,-0.74994 0,0.74994 -0.25364,0 0,-2.13329"
         style="font-size:2.80782008px"
         id="path5526"
         inkscape:connector-curvature="0" />
      <path
         d="m -364.42377,939.11401 0.25227,0 0,1.53553 -0.25227,0 0,-1.53553 m 0,-0.59776 0.25227,0 0,0.31945 -0.25227,0 0,-0.31945"
         style="font-size:2.80782008px"
         id="path5528"
         inkscape:connector-curvature="0" />
      <path
         d="m -362.36863,939.72274 0,0.9268 -0.25227,0 0,-0.91858 c 0,-0.14532 -0.0283,-0.25409 -0.085,-0.3263 -0.0567,-0.0722 -0.14167,-0.10831 -0.25501,-0.10831 -0.13618,0 -0.24358,0.0434 -0.32218,0.13025 -0.0786,0.0868 -0.11791,0.20519 -0.11791,0.35509 l 0,0.86785 -0.25363,0 0,-1.53553 0.25363,0 0,0.23855 c 0.0603,-0.0923 0.13116,-0.16132 0.21251,-0.20702 0.0823,-0.0457 0.17686,-0.0685 0.2838,-0.0685 0.1764,0 0.30984,0.0548 0.40033,0.16452 0.0905,0.10877 0.13573,0.26918 0.13573,0.48123"
         style="font-size:2.80782008px"
         id="path5530"
         inkscape:connector-curvature="0" />
      <path
         d="m -360.8523,939.86395 c 0,-0.1828 -0.0379,-0.32447 -0.11379,-0.42501 -0.075,-0.10054 -0.18052,-0.15081 -0.3167,-0.15081 -0.13528,0 -0.24084,0.0503 -0.31671,0.15081 -0.075,0.10054 -0.11242,0.24221 -0.11242,0.42501 0,0.18189 0.0375,0.3231 0.11242,0.42364 0.0759,0.10054 0.18143,0.15081 0.31671,0.15081 0.13618,0 0.24175,-0.0503 0.3167,-0.15081 0.0759,-0.10054 0.11379,-0.24175 0.11379,-0.42364 m 0.25227,0.59502 c 0,0.2614 -0.058,0.45563 -0.17412,0.58267 -0.11608,0.12796 -0.29385,0.19194 -0.53332,0.19194 -0.0887,0 -0.17229,-0.007 -0.2509,-0.0206 -0.0786,-0.0128 -0.15492,-0.0329 -0.22895,-0.0603 l 0,-0.24541 c 0.074,0.0402 0.14715,0.0699 0.21936,0.0891 0.0722,0.0192 0.14578,0.0288 0.22073,0.0288 0.16543,0 0.28928,-0.0434 0.37154,-0.13024 0.0823,-0.0859 0.12339,-0.21617 0.12339,-0.39074 l 0,-0.12476 c -0.0521,0.0905 -0.11882,0.15812 -0.20017,0.20291 -0.0813,0.0448 -0.17868,0.0672 -0.29202,0.0672 -0.18828,0 -0.34001,-0.0717 -0.45517,-0.21525 -0.11517,-0.1435 -0.17275,-0.33361 -0.17275,-0.57034 0,-0.23764 0.0576,-0.42821 0.17275,-0.57171 0.11516,-0.1435 0.26689,-0.21525 0.45517,-0.21525 0.11334,0 0.21068,0.0224 0.29202,0.0672 0.0814,0.0448 0.14807,0.11243 0.20017,0.20291 l 0,-0.23307 0.25227,0 0,1.34496"
         style="font-size:2.80782008px"
         id="path5532"
         inkscape:connector-curvature="0" />
    </g>
    <path
       inkscape:connector-curvature="0"
       id="path5537"
       style="font-size:2.26816726px;font-style:normal;font-weight:normal;line-height:125%;letter-spacing:0px;word-spacing:0px;fill:#000000;fill-opacity:1;stroke:none;font-family:Sans"
       d="m 11.652187,1012.6653 c -0.05615,-0.139 -0.128867,-0.2362 -0.218161,-0.2917 -0.08894,-0.057 -0.183337,-0.065 -0.283278,-0.024 -0.09995,0.04 -0.162644,0.1119 -0.188056,0.2145 -0.02503,0.1017 -0.0094,0.222 0.04672,0.361 0.05615,0.139 0.128631,0.2367 0.217553,0.2932 0.08929,0.055 0.183941,0.063 0.283891,0.023 0.09994,-0.04 0.162442,-0.1113 0.187443,-0.2131 0.02542,-0.1026 0.01003,-0.2234 -0.04612,-0.3624 m -0.805036,-0.1418 c 0.01204,-0.084 0.04153,-0.1553 0.08852,-0.2125 0.04735,-0.058 0.113145,-0.1043 0.197352,-0.1383 0.139656,-0.056 0.275347,-0.047 0.407099,0.029 0.132426,0.076 0.235159,0.2036 0.308177,0.3844 0.07302,0.1807 0.08807,0.3442 0.0453,0.4905 -0.04216,0.146 -0.133023,0.2472 -0.272675,0.3037 -0.08419,0.034 -0.163399,0.047 -0.237623,0.039 -0.07383,-0.01 -0.144387,-0.04 -0.211743,-0.092 l 0.0697,0.1725 -0.189971,0.077 -0.645548,-1.5978 0.18997,-0.077 0.251414,0.6223" />
    <path
       inkscape:connector-curvature="0"
       id="path5539"
       style="font-size:2.26816726px;font-style:normal;font-weight:normal;line-height:125%;letter-spacing:0px;word-spacing:0px;fill:#000000;fill-opacity:1;stroke:none;font-family:Sans"
       d="m 11.928761,1011.8835 0.188941,-0.076 0.464663,1.1501 -0.188942,0.076 -0.464662,-1.1501 m -0.180886,-0.4477 0.188941,-0.076 0.09666,0.2393 -0.188942,0.076 -0.09666,-0.2392" />
    <path
       inkscape:connector-curvature="0"
       id="path5541"
       style="font-size:2.26816726px;font-style:normal;font-weight:normal;line-height:125%;letter-spacing:0px;word-spacing:0px;fill:#000000;fill-opacity:1;stroke:none;font-family:Sans"
       d="m 13.357505,1011.3576 0.07136,0.1766 c -0.06528,-0.01 -0.127889,-0.01 -0.187778,-6e-4 -0.05947,0.01 -0.116619,0.021 -0.171379,0.043 -0.122542,0.049 -0.201932,0.127 -0.238173,0.2324 -0.03654,0.1047 -0.02642,0.2273 0.03028,0.3676 0.0567,0.1404 0.134656,0.2359 0.234001,0.2865 0.09902,0.05 0.209807,0.05 0.332352,7e-4 0.0548,-0.022 0.105846,-0.051 0.153511,-0.087 0.04799,-0.037 0.09276,-0.081 0.134247,-0.1319 l 0.07053,0.1746 c -0.0427,0.046 -0.09006,0.087 -0.141896,0.1218 -0.05111,0.035 -0.108582,0.065 -0.172243,0.091 -0.173198,0.07 -0.33279,0.071 -0.478765,0 -0.145978,-0.068 -0.256309,-0.1939 -0.330987,-0.3787 -0.07579,-0.1876 -0.08402,-0.3559 -0.02478,-0.5049 0.05994,-0.1492 0.179598,-0.2601 0.358958,-0.3325 0.05814,-0.023 0.117621,-0.04 0.177908,-0.05 0.06017,-0.011 0.121098,-0.015 0.182796,-0.012" />
    <path
       inkscape:connector-curvature="0"
       id="path5543"
       style="font-size:2.26816726px;font-style:normal;font-weight:normal;line-height:125%;letter-spacing:0px;word-spacing:0px;fill:#000000;fill-opacity:1;stroke:none;font-family:Sans"
       d="m 14.656638,1012.2434 c 0.0019,0.1585 -0.01401,0.2688 -0.0478,0.3311 -0.03377,0.062 -0.0931,0.1105 -0.177989,0.1448 l -0.150955,0.061 -0.06389,-0.1582 0.110901,-0.045 c 0.05202,-0.021 0.08746,-0.05 0.106227,-0.086 0.01878,-0.036 0.02709,-0.1073 0.02497,-0.2132 l -9.96e-4,-0.1 -0.922364,-0.9436 0.200244,-0.081 0.722827,0.7543 -0.004,-1.0448 0.200235,-0.081 0.0026,1.461" />
    <path
       inkscape:connector-curvature="0"
       id="path5545"
       style="font-size:2.26816726px;font-style:normal;font-weight:normal;line-height:125%;letter-spacing:0px;word-spacing:0px;fill:#000000;fill-opacity:1;stroke:none;font-family:Sans"
       d="m 15.760357,1010.3868 0.07136,0.1766 c -0.06528,-0.01 -0.127889,-0.01 -0.187778,-6e-4 -0.05948,0.01 -0.11662,0.021 -0.171389,0.043 -0.122532,0.05 -0.201922,0.127 -0.238163,0.2324 -0.03654,0.1047 -0.02643,0.2273 0.03028,0.3676 0.05669,0.1404 0.134657,0.2359 0.234001,0.2865 0.09902,0.05 0.209807,0.05 0.332344,7e-4 0.0548,-0.022 0.105854,-0.051 0.153519,-0.087 0.04799,-0.037 0.09276,-0.081 0.134247,-0.1319 l 0.07053,0.1745 c -0.04279,0.046 -0.09006,0.087 -0.141895,0.1219 -0.0512,0.035 -0.108583,0.065 -0.172252,0.091 -0.173198,0.07 -0.332782,0.071 -0.478756,0 -0.145979,-0.068 -0.256309,-0.1938 -0.330987,-0.3787 -0.07579,-0.1875 -0.08403,-0.3558 -0.02479,-0.5048 0.05995,-0.1492 0.179606,-0.2601 0.358957,-0.3325 0.05823,-0.024 0.11763,-0.04 0.177918,-0.051 0.06016,-0.011 0.121097,-0.015 0.182796,-0.012" />
    <path
       inkscape:connector-curvature="0"
       id="path5547"
       style="font-size:2.26816726px;font-style:normal;font-weight:normal;line-height:125%;letter-spacing:0px;word-spacing:0px;fill:#000000;fill-opacity:1;stroke:none;font-family:Sans"
       d="m 15.892275,1009.7613 0.188942,-0.076 0.645548,1.5978 -0.188941,0.076 -0.645549,-1.5978" />
    <path
       inkscape:connector-curvature="0"
       id="path5549"
       style="font-size:2.26816726px;font-style:normal;font-weight:normal;line-height:125%;letter-spacing:0px;word-spacing:0px;fill:#000000;fill-opacity:1;stroke:none;font-family:Sans"
       d="m 17.853393,1010.1037 0.03735,0.092 -0.868716,0.3509 c 0.06089,0.1267 0.139849,0.2103 0.237369,0.2505 0.09794,0.039 0.20948,0.034 0.334762,-0.017 0.0726,-0.029 0.138984,-0.067 0.199719,-0.1117 0.06123,-0.046 0.11824,-0.1 0.170947,-0.1623 l 0.07219,0.1787 c -0.05616,0.056 -0.116807,0.1061 -0.18189,0.15 -0.0651,0.044 -0.134276,0.081 -0.207533,0.1101 -0.183462,0.074 -0.350514,0.08 -0.501128,0.016 -0.14994,-0.064 -0.261696,-0.1866 -0.335269,-0.3687 -0.07606,-0.1882 -0.08573,-0.3579 -0.02891,-0.5091 0.05719,-0.1521 0.172043,-0.263 0.344551,-0.3327 0.154723,-0.063 0.297104,-0.062 0.427164,0 0.130506,0.063 0.230275,0.1797 0.29942,0.3509 m -0.211343,0.021 c -0.04269,-0.103 -0.105598,-0.1736 -0.187234,-0.2123 -0.08106,-0.039 -0.168109,-0.04 -0.261208,0 -0.105417,0.043 -0.177945,0.1066 -0.217519,0.1919 -0.03891,0.085 -0.04132,0.1835 -0.0072,0.2956 l 0.673243,-0.2731" />
    <path
       inkscape:connector-curvature="0"
       id="path5551"
       style="font-size:2.26816726px;font-style:normal;font-weight:normal;line-height:125%;letter-spacing:0px;word-spacing:0px;fill:#000000;fill-opacity:1;stroke:none;font-family:Sans"
       d="m 18.697132,1009.1883 0.07219,0.1787 c -0.06446,-0.01 -0.128218,0 -0.191266,0.01 -0.06303,0.01 -0.125374,0.027 -0.186985,0.052 -0.09379,0.038 -0.158491,0.081 -0.194118,0.1286 -0.03493,0.048 -0.04078,0.1001 -0.01754,0.1576 0.01772,0.044 0.04844,0.072 0.09225,0.083 0.04353,0.011 0.120488,0.01 0.230913,-0.011 l 0.07052,-0.012 c 0.145786,-0.025 0.257388,-0.023 0.334831,0.01 0.07785,0.029 0.135686,0.09 0.173578,0.1843 0.04315,0.1067 0.03484,0.2085 -0.02485,0.305 -0.05901,0.096 -0.162491,0.1744 -0.310358,0.2341 -0.06166,0.025 -0.128581,0.044 -0.200504,0.06 -0.07111,0.015 -0.148449,0.026 -0.232085,0.032 l -0.07882,-0.1951 c 0.08446,0.01 0.164368,0.01 0.239591,0 0.07497,-0.01 0.145647,-0.028 0.212052,-0.055 0.08901,-0.036 0.151386,-0.079 0.187128,-0.1282 0.0355,-0.05 0.042,-0.1029 0.01958,-0.1584 -0.02075,-0.051 -0.05407,-0.084 -0.100099,-0.097 -0.04526,-0.013 -0.131608,-0.01 -0.258892,0.013 l -0.07196,0.011 c -0.127031,0.023 -0.22678,0.019 -0.299265,-0.01 -0.07277,-0.03 -0.127165,-0.09 -0.16312,-0.179 -0.0437,-0.1081 -0.03906,-0.2072 0.01379,-0.297 0.05289,-0.09 0.149849,-0.1632 0.290873,-0.2202 0.06982,-0.028 0.137793,-0.049 0.203375,-0.064 0.06572,-0.014 0.128806,-0.022 0.189118,-0.023" />
    <g
       transform="matrix(0.92718386,-0.37460659,0.37460659,0.92718386,0,0)"
       style="font-size:2.26816726px;font-style:normal;font-weight:normal;line-height:125%;letter-spacing:0px;word-spacing:0px;fill:#000000;fill-opacity:1;stroke:none;font-family:Sans"
       id="text5417">
      <path
         d="m -370.39987,945.96254 c -0.16465,0 -0.27872,0.0188 -0.34222,0.0565 -0.0635,0.0377 -0.0952,0.10189 -0.0952,0.1927 0,0.0724 0.0236,0.12995 0.0709,0.17277 0.048,0.0421 0.11296,0.0631 0.19492,0.0631 0.11296,0 0.20341,-0.0399 0.27134,-0.11961 0.0687,-0.0805 0.10299,-0.18717 0.10299,-0.32007 l 0,-0.0454 -0.20267,0 m 0.40645,-0.0842 0,0.7077 -0.20378,0 0,-0.18828 c -0.0465,0.0753 -0.10447,0.13106 -0.17388,0.16724 -0.0694,0.0354 -0.15431,0.0532 -0.25472,0.0532 -0.127,0 -0.22815,-0.0354 -0.30346,-0.10632 -0.0746,-0.0716 -0.11185,-0.16724 -0.11185,-0.28685 0,-0.13954 0.0465,-0.24475 0.13954,-0.31564 0.0938,-0.0709 0.23331,-0.10631 0.41864,-0.10632 l 0.28573,0 0,-0.0199 c 0,-0.0938 -0.031,-0.16613 -0.093,-0.21707 -0.0613,-0.0517 -0.14767,-0.0775 -0.25915,-0.0775 -0.0709,0 -0.13992,0.009 -0.20711,0.0255 -0.0672,0.017 -0.13179,0.0425 -0.19381,0.0764 l 0,-0.18827 c 0.0746,-0.0288 0.14693,-0.0502 0.21707,-0.0642 0.0701,-0.0148 0.13844,-0.0222 0.20489,-0.0222 0.17941,0 0.31342,0.0465 0.40202,0.13955 0.0886,0.093 0.1329,0.23405 0.1329,0.42306"
         id="path5554"
         inkscape:connector-curvature="0" />
      <path
         d="m -369.71876,945.34566 0.21597,0 0.38762,1.04105 0.38763,-1.04105 0.21596,0 -0.46515,1.2404 -0.27687,0 -0.46516,-1.2404"
         id="path5556"
         inkscape:connector-curvature="0" />
      <path
         d="m -367.66655,945.96254 c -0.16465,0 -0.27872,0.0188 -0.34222,0.0565 -0.0635,0.0377 -0.0952,0.10189 -0.0952,0.1927 0,0.0724 0.0236,0.12995 0.0709,0.17277 0.048,0.0421 0.11297,0.0631 0.19493,0.0631 0.11296,0 0.20341,-0.0399 0.27133,-0.11961 0.0687,-0.0805 0.103,-0.18717 0.103,-0.32007 l 0,-0.0454 -0.20267,0 m 0.40645,-0.0842 0,0.7077 -0.20378,0 0,-0.18828 c -0.0465,0.0753 -0.10447,0.13106 -0.17388,0.16724 -0.0694,0.0354 -0.15431,0.0532 -0.25472,0.0532 -0.127,0 -0.22815,-0.0354 -0.30346,-0.10632 -0.0746,-0.0716 -0.11186,-0.16724 -0.11186,-0.28685 0,-0.13954 0.0465,-0.24475 0.13955,-0.31564 0.0938,-0.0709 0.23331,-0.10631 0.41864,-0.10632 l 0.28573,0 0,-0.0199 c 0,-0.0938 -0.031,-0.16613 -0.093,-0.21707 -0.0613,-0.0517 -0.14767,-0.0775 -0.25915,-0.0775 -0.0709,0 -0.13992,0.009 -0.20711,0.0255 -0.0672,0.017 -0.13179,0.0425 -0.19381,0.0764 l 0,-0.18827 c 0.0746,-0.0288 0.14693,-0.0502 0.21707,-0.0642 0.0701,-0.0148 0.13844,-0.0222 0.20489,-0.0222 0.17941,0 0.31342,0.0465 0.40202,0.13955 0.0886,0.093 0.1329,0.23405 0.1329,0.42306"
         id="path5558"
         inkscape:connector-curvature="0" />
      <path
         d="m -366.83925,945.34566 0.20378,0 0,1.2404 -0.20378,0 0,-1.2404 m 0,-0.48288 0.20378,0 0,0.25805 -0.20378,0 0,-0.25805"
         id="path5560"
         inkscape:connector-curvature="0" />
      <path
         d="m -366.21018,944.86278 0.20378,0 0,1.72328 -0.20378,0 0,-1.72328"
         id="path5562"
         inkscape:connector-curvature="0" />
      <path
         d="m -365.0174,945.96254 c -0.16465,0 -0.27873,0.0188 -0.34222,0.0565 -0.0635,0.0377 -0.0953,0.10189 -0.0953,0.1927 0,0.0724 0.0236,0.12995 0.0709,0.17277 0.048,0.0421 0.11297,0.0631 0.19492,0.0631 0.11297,0 0.20341,-0.0399 0.27134,-0.11961 0.0687,-0.0805 0.103,-0.18717 0.103,-0.32007 l 0,-0.0454 -0.20267,0 m 0.40645,-0.0842 0,0.7077 -0.20378,0 0,-0.18828 c -0.0465,0.0753 -0.10448,0.13106 -0.17388,0.16724 -0.0694,0.0354 -0.15431,0.0532 -0.25472,0.0532 -0.127,0 -0.22815,-0.0354 -0.30346,-0.10632 -0.0746,-0.0716 -0.11186,-0.16724 -0.11186,-0.28685 0,-0.13954 0.0465,-0.24475 0.13955,-0.31564 0.0938,-0.0709 0.23331,-0.10631 0.41863,-0.10632 l 0.28574,0 0,-0.0199 c 0,-0.0938 -0.031,-0.16613 -0.093,-0.21707 -0.0613,-0.0517 -0.14767,-0.0775 -0.25916,-0.0775 -0.0709,0 -0.13991,0.009 -0.2071,0.0255 -0.0672,0.017 -0.13179,0.0425 -0.19381,0.0764 l 0,-0.18827 c 0.0746,-0.0288 0.14693,-0.0502 0.21707,-0.0642 0.0701,-0.0148 0.13844,-0.0222 0.20489,-0.0222 0.17941,0 0.31342,0.0465 0.40202,0.13955 0.0886,0.093 0.1329,0.23405 0.1329,0.42306"
         id="path5564"
         inkscape:connector-curvature="0" />
      <path
         d="m -363.29966,945.96697 c -10e-6,-0.14989 -0.031,-0.26728 -0.093,-0.35219 -0.0613,-0.0856 -0.14582,-0.12847 -0.25361,-0.12847 -0.1078,0 -0.19271,0.0428 -0.25473,0.12847 -0.0613,0.0849 -0.0919,0.2023 -0.0919,0.35219 0,0.14988 0.0306,0.26764 0.0919,0.35329 0.062,0.0849 0.14693,0.12736 0.25473,0.12736 0.10779,0 0.19233,-0.0425 0.25361,-0.12736 0.062,-0.0856 0.093,-0.20341 0.093,-0.35329 m -0.6933,-0.43304 c 0.0428,-0.0738 0.0967,-0.12847 0.16169,-0.16391 0.0657,-0.0362 0.14398,-0.0543 0.23479,-0.0543 0.15062,0 0.27282,0.0598 0.36659,0.17942 0.0945,0.11961 0.14176,0.27688 0.14176,0.4718 0,0.19492 -0.0473,0.35218 -0.14176,0.47179 -0.0938,0.11961 -0.21597,0.17942 -0.36659,0.17942 -0.0908,0 -0.16908,-0.0177 -0.23479,-0.0532 -0.065,-0.0362 -0.11887,-0.0912 -0.16169,-0.16502 l 0,0.18606 -0.20489,0 0,-1.72328 0.20489,0 0,0.67115"
         id="path5566"
         inkscape:connector-curvature="0" />
      <path
         d="m -362.75034,944.86278 0.20378,0 0,1.72328 -0.20378,0 0,-1.72328"
         id="path5568"
         inkscape:connector-curvature="0" />
      <path
         d="m -361.06029,945.91491 0,0.0997 -0.93695,0 c 0.009,0.14028 0.0509,0.24734 0.12625,0.32117 0.0761,0.0731 0.18163,0.10965 0.31675,0.10965 0.0783,0 0.15394,-0.01 0.22704,-0.0288 0.0738,-0.0192 0.14693,-0.048 0.21928,-0.0864 l 0,0.1927 c -0.0731,0.031 -0.14803,0.0546 -0.22482,0.0709 -0.0768,0.0163 -0.15468,0.0244 -0.23368,0.0244 -0.19788,0 -0.35477,-0.0576 -0.47069,-0.17277 -0.11518,-0.11518 -0.17277,-0.27097 -0.17277,-0.46737 0,-0.20304 0.0546,-0.364 0.16391,-0.48287 0.11001,-0.11961 0.25805,-0.17942 0.44411,-0.17942 0.16686,0 0.29865,0.0539 0.39538,0.1617 0.0975,0.10706 0.14619,0.25288 0.14619,0.43746 m -0.20378,-0.0598 c -10e-4,-0.11149 -0.0329,-0.20046 -0.0941,-0.26691 -0.0606,-0.0665 -0.14102,-0.0997 -0.24144,-0.0997 -0.1137,0 -0.20489,0.0321 -0.27355,0.0964 -0.0679,0.0642 -0.10706,0.15468 -0.1174,0.27133 l 0.72653,-10e-4"
         id="path5570"
         inkscape:connector-curvature="0" />
    </g>
    <path
       style="fill:none;stroke:#000000;stroke-width:1;stroke-linecap:butt;stroke-linejoin:miter;stroke-miterlimit:4;stroke-opacity:1;stroke-dasharray:1, 1;stroke-dashoffset:0"
       d="m 19.30974,45.772367 c -0.24259,3.225967 1.441226,3.987486 -3.091175,5.929564 L 10.106759,51.141085 C 6.8111732,50.603495 1.4491507,49.572795 -0.6110708,46.873318"
       id="path3075"
       inkscape:connector-curvature="0"
       transform="translate(0,992.36218)"
       sodipodi:nodetypes="cccc" />
    <g
       id="g4993"
       transform="translate(-10.804194,4.6905033)">
      <path
         d="m 108.40197,1028.0045 3.0345,0.5343 8.22515,-1.458 -2.9987,-0.4056 z"
         style="fill:#787878;fill-opacity:1;fill-rule:evenodd;stroke:#000000;stroke-width:0.93951344;stroke-linecap:round;stroke-linejoin:round;stroke-miterlimit:4;stroke-opacity:1;stroke-dasharray:none;stroke-dashoffset:0"
         id="path4975"
         inkscape:connector-curvature="0" />
      <path
         d="m 108.40197,1007.9585 0,20.046 8.26095,-1.3293 0,-17.5197 z"
         style="fill:#787878;fill-opacity:1;fill-rule:evenodd;stroke:#000000;stroke-width:0.93951344;stroke-linecap:round;stroke-linejoin:round;stroke-miterlimit:4;stroke-opacity:1;stroke-dasharray:none;stroke-dashoffset:0"
         id="path4977"
         inkscape:connector-curvature="0" />
      <path
         d="m 116.66292,1009.1555 2.9987,-0.3652 0,18.2905 -2.9987,-0.4056 z"
         style="fill:#787878;fill-opacity:1;fill-rule:evenodd;stroke:#000000;stroke-width:0.93951344;stroke-linecap:round;stroke-linejoin:round;stroke-miterlimit:4;stroke-opacity:1;stroke-dasharray:none;stroke-dashoffset:0"
         id="path4979"
         inkscape:connector-curvature="0" />
      <path
         d="m 108.40197,1007.9585 3.0345,-0.4812 8.22515,1.313 -2.9987,0.3652 z"
         style="fill:#787878;fill-opacity:1;fill-rule:evenodd;stroke:#000000;stroke-width:0.93951344;stroke-linecap:round;stroke-linejoin:round;stroke-miterlimit:4;stroke-opacity:1;stroke-dasharray:none;stroke-dashoffset:0"
         id="path4981"
         inkscape:connector-curvature="0" />
      <path
         d="m 111.43647,1007.4773 0,21.0615 8.22515,-1.458 0,-18.2905 z"
         style="fill:#787878;fill-opacity:1;fill-rule:evenodd;stroke:#000000;stroke-width:0.93951344;stroke-linecap:round;stroke-linejoin:round;stroke-miterlimit:4;stroke-opacity:1;stroke-dasharray:none;stroke-dashoffset:0"
         id="path4983"
         inkscape:connector-curvature="0" />
      <path
         d="m 108.40197,1007.9585 3.0345,-0.4812 0,21.0615 -3.0345,-0.5343 z"
         style="fill:#787878;fill-opacity:1;fill-rule:evenodd;stroke:#000000;stroke-width:0.93951344;stroke-linecap:round;stroke-linejoin:round;stroke-miterlimit:4;stroke-opacity:1;stroke-dasharray:none;stroke-dashoffset:0"
         id="path4985"
         inkscape:connector-curvature="0" />
      <path
         id="path3885-8"
         d="m 111.01252,1009.6243 c -0.68846,-0.3032 -1.45506,-0.3434 -2.26305,-0.071 -2.98654,1.0063 -5.4076,5.901 -5.4076,10.9326 l 0,0 c 0,5.0316 2.42106,8.2947 5.4076,7.2884 0.8114,-0.2734 1.58106,-0.8338 2.27176,-1.606"
         style="fill:none;stroke:#000000;stroke-width:1.37199998;stroke-linecap:round;stroke-miterlimit:4;stroke-opacity:1;stroke-dasharray:none"
         inkscape:connector-curvature="0" />
      <path
         transform="matrix(-0.05945085,0.02003208,0,0.12923923,119.53379,963.65215)"
         d="m 191.42391,395.5105 c 0,4.32366 -4.5226,7.82868 -10.10152,7.82868 -5.57892,0 -10.10153,-3.50502 -10.10153,-7.82868 0,-4.32366 4.52261,-7.82868 10.10153,-7.82868 5.57892,0 10.10152,3.50502 10.10152,7.82868 z"
         sodipodi:ry="7.8286824"
         sodipodi:rx="10.101525"
         sodipodi:cy="395.5105"
         sodipodi:cx="181.32239"
         id="path3767-3-3-1"
         style="fill:#000000;fill-opacity:1;stroke:#000000;stroke-width:1;stroke-miterlimit:4;stroke-opacity:1;stroke-dasharray:none"
         sodipodi:type="arc" />
      <path
         sodipodi:nodetypes="cc"
         inkscape:connector-curvature="0"
         id="path3769-1-6-4"
         d="m 108.74812,1018.4819 c -3.09512,-2.4151 -3.21972,-8.0729 -4.78236,-15.0854"
         style="fill:none;stroke:#000000;stroke-width:1.37220609;stroke-linecap:butt;stroke-linejoin:round;stroke-miterlimit:4;stroke-opacity:1;stroke-dasharray:none" />
      <path
         transform="matrix(-0.10100474,0.03403375,0,0.17261136,108.508,945.1578)"
         d="m 240.41631,426.82523 c 0,29.14985 -23.96982,52.78047 -53.53809,52.78047 -29.56827,0 -53.53809,-23.63062 -53.53809,-52.78047 0,-29.14985 23.96982,-52.78048 53.53809,-52.78048 29.56827,0 53.53809,23.63063 53.53809,52.78048 z"
         sodipodi:ry="52.780472"
         sodipodi:rx="53.538086"
         sodipodi:cy="426.82523"
         sodipodi:cx="186.87822"
         id="path2997-5-4-3-8"
         style="fill:none;stroke:#000000;stroke-width:10.39235115;stroke-miterlimit:4;stroke-opacity:1;stroke-dasharray:none"
         sodipodi:type="arc" />
      <path
         transform="matrix(-0.05945085,0.02003208,0,0.12923923,100.3054,970.21121)"
         d="m 191.42391,395.5105 c 0,4.32366 -4.5226,7.82868 -10.10152,7.82868 -5.57892,0 -10.10153,-3.50502 -10.10153,-7.82868 0,-4.32366 4.52261,-7.82868 10.10153,-7.82868 5.57892,0 10.10152,3.50502 10.10152,7.82868 z"
         sodipodi:ry="7.8286824"
         sodipodi:rx="10.101525"
         sodipodi:cy="395.5105"
         sodipodi:cx="181.32239"
         id="path3767-9-4-4-0"
         style="fill:#000000;fill-opacity:1;stroke:#000000;stroke-width:1;stroke-miterlimit:4;stroke-opacity:1;stroke-dasharray:none"
         sodipodi:type="arc" />
      <path
         sodipodi:nodetypes="cc"
         inkscape:connector-curvature="0"
         id="path3807-8-8-6"
         d="m 89.418835,1025.2648 c 0.480563,-1.3314 5.820145,-14.6453 5.820145,-14.6453"
         style="fill:none;stroke:#000000;stroke-width:1.37220609;stroke-linecap:butt;stroke-linejoin:miter;stroke-miterlimit:4;stroke-opacity:1;stroke-dasharray:none" />
      <path
         sodipodi:nodetypes="cc"
         inkscape:connector-curvature="0"
         id="path3809-8-0-5"
         d="m 94.972001,1010.8893 9.824829,-3.4904"
         style="fill:none;stroke:#000000;stroke-width:1.37220609;stroke-linecap:butt;stroke-linejoin:miter;stroke-miterlimit:4;stroke-opacity:1;stroke-dasharray:none" />
      <path
         sodipodi:nodetypes="cc"
         inkscape:connector-curvature="0"
         id="path3811-4-0-4"
         d="m 98.175749,1025.1029 c -0.320374,-1.1515 -3.470727,-17.0922 -3.470727,-17.0922"
         style="fill:none;stroke:#000000;stroke-width:1.37220609;stroke-linecap:butt;stroke-linejoin:miter;stroke-miterlimit:4;stroke-opacity:1;stroke-dasharray:none" />
      <path
         transform="matrix(-0.09908474,0.03338681,0,0.21539872,115.98614,933.2867)"
         d="m 191.42391,395.5105 c 0,4.32366 -4.5226,7.82868 -10.10152,7.82868 -5.57892,0 -10.10153,-3.50502 -10.10153,-7.82868 0,-4.32366 4.52261,-7.82868 10.10153,-7.82868 5.57892,0 10.10152,3.50502 10.10152,7.82868 z"
         sodipodi:ry="7.8286824"
         sodipodi:rx="10.101525"
         sodipodi:cy="395.5105"
         sodipodi:cx="181.32239"
         id="path3767-9-3-0-1-6"
         style="fill:#000000;fill-opacity:1;stroke:#000000;stroke-width:1;stroke-miterlimit:4;stroke-opacity:1;stroke-dasharray:none"
         sodipodi:type="arc" />
      <path
         sodipodi:nodetypes="cc"
         inkscape:connector-curvature="0"
         id="path3831-7-7-9"
         d="m 98.229146,1024.7251 -8.756915,0.2519"
         style="fill:none;stroke:#000000;stroke-width:1.37220609;stroke-linecap:butt;stroke-linejoin:miter;stroke-miterlimit:4;stroke-opacity:1;stroke-dasharray:none" />
      <path
         sodipodi:nodetypes="cc"
         inkscape:connector-curvature="0"
         id="path3833-6-1-5"
         d="m 104.90362,1009.2521 -6.674474,15.2031"
         style="fill:none;stroke:#000000;stroke-width:1.37220609;stroke-linecap:butt;stroke-linejoin:miter;stroke-miterlimit:4;stroke-opacity:1;stroke-dasharray:none" />
      <path
         sodipodi:nodetypes="cccc"
         inkscape:connector-curvature="0"
         id="path3835-6-3-8"
         d="m 103.79561,1004.0332 0.62745,-2.2657 -0.96109,-1.1155 -1.97353,0.665"
         style="fill:none;stroke:#000000;stroke-width:0.96054429;stroke-linecap:butt;stroke-linejoin:miter;stroke-miterlimit:4;stroke-opacity:1;stroke-dasharray:none" />
      <path
         sodipodi:nodetypes="ccc"
         inkscape:connector-curvature="0"
         id="path3837-4-0-5"
         d="m 97.962167,1006.1935 -5.76675,1.6732 c -0.89686,3.7311 7.19641,-1.1608 5.76675,-1.6732 z"
         style="fill:#000000;fill-opacity:1;stroke:#000000;stroke-width:0.13722061px;stroke-linecap:round;stroke-linejoin:round;stroke-opacity:1" />
      <g
         transform="matrix(-0.10571834,0.03562201,0,0.17811003,134.48491,920.69892)"
         id="g3873-2-2-5"
         style="stroke:#000000;stroke-opacity:1">
        <path
           style="fill:none;stroke:#000000;stroke-width:5;stroke-linecap:butt;stroke-linejoin:miter;stroke-miterlimit:4;stroke-opacity:1;stroke-dasharray:none"
           d="m 345.85995,520.04769 4.54569,21.71827"
           id="path3839-6-9-6"
           inkscape:connector-curvature="0"
           sodipodi:nodetypes="cc" />
        <path
           style="fill:none;stroke:#000000;stroke-width:5;stroke-linecap:butt;stroke-linejoin:miter;stroke-miterlimit:4;stroke-opacity:1;stroke-dasharray:none"
           d="m 343.45467,540.63325 13.3508,-0.3265"
           id="path3841-6-6-8"
           inkscape:connector-curvature="0"
           sodipodi:nodetypes="cc" />
      </g>
      <g
         id="g3873-0-2-2-9"
         style="stroke:#000000;stroke-opacity:1;display:inline"
         transform="matrix(0.10571834,-0.03562201,0,-0.17811003,61.714289,1128.6186)">
        <path
           style="fill:none;stroke:#000000;stroke-width:5;stroke-linecap:butt;stroke-linejoin:miter;stroke-miterlimit:4;stroke-opacity:1;stroke-dasharray:none"
           d="m 345.85995,520.04769 4.54569,21.71827"
           id="path3839-2-3-0-6"
           inkscape:connector-curvature="0"
           sodipodi:nodetypes="cc" />
        <path
           style="fill:none;stroke:#000000;stroke-width:5;stroke-linecap:butt;stroke-linejoin:miter;stroke-miterlimit:4;stroke-opacity:1;stroke-dasharray:none"
           d="m 343.45467,540.63325 13.3508,-0.3265"
           id="path3841-9-5-2-5"
           inkscape:connector-curvature="0"
           sodipodi:nodetypes="cc" />
      </g>
    </g>
    <path
       style="fill:none;stroke:#000000;stroke-width:1;stroke-linecap:butt;stroke-linejoin:miter;stroke-miterlimit:4;stroke-opacity:1;stroke-dasharray:none;stroke-dashoffset:0"
       d="m 64.351404,1032.7804 c 1.525177,3.2259 -13.584793,11.0585 -19.177854,10.5257 l -13.536428,-4.6266 c -3.295586,-2.3054 -6.666492,0.8208 -8.726713,-1.8787"
       id="path3075-3"
       inkscape:connector-curvature="0"
       sodipodi:nodetypes="cccc" />
    <path
       style="fill:none;stroke:#000000;stroke-width:1;stroke-linecap:butt;stroke-linejoin:miter;stroke-miterlimit:4;stroke-opacity:1;stroke-dasharray:none;stroke-dashoffset:0"
       d="m 103.24473,1032.9442 c -2.01438,7.3554 -9.398517,12.1928 -26.516688,9.9792 l -13.523865,0.991 c -7.93486,-0.4973 -9.027415,1.2206 -15.41313,1.3714 -20.691589,0.4887 -25.975898,-6.5304 -26.865621,-7.6962"
       id="path3075-3-5"
       inkscape:connector-curvature="0"
       sodipodi:nodetypes="cccsc" />
    <g
       transform="matrix(0.92718386,-0.37460659,0.37460659,0.92718386,0,0)"
       style="font-size:2.47450185px;font-style:normal;font-weight:normal;line-height:125%;letter-spacing:0px;word-spacing:0px;fill:#000000;fill-opacity:1;stroke:none;font-family:Sans"
       id="text3084">
      <path
         d="m -371.12059,943.6851 0.85182,0 0,0.2054 -1.14542,0 0,-0.2054 c 0.0926,-0.0959 0.21869,-0.22433 0.37818,-0.38543 0.1603,-0.16191 0.26098,-0.26622 0.30207,-0.31294 0.0781,-0.0878 0.1325,-0.16191 0.16311,-0.22232 0.0314,-0.0612 0.0471,-0.12123 0.0471,-0.18003 0,-0.0959 -0.0338,-0.17399 -0.10149,-0.2344 -0.0669,-0.0604 -0.15426,-0.0906 -0.26219,-0.0906 -0.0765,0 -0.15748,0.0133 -0.24286,0.0399 -0.0846,0.0266 -0.1752,0.0669 -0.27186,0.12083 l 0,-0.24648 c 0.0983,-0.0395 0.1901,-0.0693 0.27548,-0.0894 0.0854,-0.0201 0.16352,-0.0302 0.2344,-0.0302 0.18688,0 0.3359,0.0467 0.44706,0.14016 0.11116,0.0934 0.16674,0.21829 0.16674,0.37455 0,0.0741 -0.0141,0.14459 -0.0423,0.21145 -0.0274,0.0661 -0.0777,0.14418 -0.15103,0.2344 -0.0201,0.0234 -0.0842,0.091 -0.19212,0.20299 -0.10793,0.11116 -0.26017,0.26702 -0.45672,0.46759"
         id="path3089"
         inkscape:connector-curvature="0" />
    </g>
    <g
       style="font-size:6px;font-style:normal;font-weight:normal;line-height:125%;letter-spacing:0px;word-spacing:0px;fill:#000000;fill-opacity:1;stroke:none;font-family:Sans"
       id="text3843">
      <path
         d="m 3.5430443,1044.3588 0,0.5771 c -0.2246124,-0.1074 -0.4365262,-0.1875 -0.6357422,-0.2402 -0.1992211,-0.053 -0.3916038,-0.079 -0.5771485,-0.079 -0.3222673,0 -0.5712904,0.063 -0.7470703,0.1875 -0.1738292,0.125 -0.2607431,0.3027 -0.2607422,0.5332 -9e-7,0.1933 0.057616,0.3398 0.1728516,0.4394 0.1171862,0.098 0.3378891,0.1768 0.6621094,0.2373 l 0.3574219,0.073 c 0.4414036,0.084 0.7665986,0.2324 0.9755859,0.4453 0.2109341,0.2109 0.3164028,0.4941 0.3164062,0.8496 -3.4e-6,0.4238 -0.1425814,0.7451 -0.4277343,0.9639 -0.2832059,0.2187 -0.6992211,0.3281 -1.2480469,0.3281 -0.2070328,0 -0.4277358,-0.023 -0.6621094,-0.07 -0.2324228,-0.047 -0.47363346,-0.1162 -0.72363279,-0.208 l 0,-0.6094 c 0.24023372,0.1348 0.47558509,0.2363 0.70605469,0.3047 0.2304674,0.068 0.4570297,0.1025 0.6796875,0.1025 0.3378885,0 0.5986304,-0.066 0.7822266,-0.1992 0.1835909,-0.1328 0.2753877,-0.3223 0.2753906,-0.5684 -2.9e-6,-0.2148 -0.066409,-0.3828 -0.1992188,-0.5039 -0.1308619,-0.1211 -0.346682,-0.2119 -0.6474609,-0.2724 l -0.3603516,-0.07 c -0.4414074,-0.088 -0.760743,-0.2256 -0.9580078,-0.4131 -0.1972661,-0.1875 -0.29589881,-0.4483 -0.29589842,-0.7822 -3.9e-7,-0.3868 0.13574166,-0.6914 0.40722652,-0.9141 0.2734365,-0.2227 0.6494127,-0.334 1.1279297,-0.334 0.205076,0 0.4140602,0.019 0.6269532,0.056 0.2128878,0.037 0.430661,0.093 0.6533203,0.167"
         id="path3848"
         inkscape:connector-curvature="0" />
      <path
         d="m 7.5127708,1046.8138 0,0.2637 -2.4785156,0 c 0.023437,0.3711 0.1347646,0.6543 0.3339844,0.8496 0.2011704,0.1934 0.480467,0.2901 0.8378906,0.2901 0.207029,0 0.4072241,-0.025 0.6005859,-0.076 0.1953097,-0.051 0.3886689,-0.127 0.5800782,-0.2285 l 0,0.5097 c -0.1933625,0.082 -0.3916044,0.1446 -0.5947266,0.1875 -0.2031274,0.043 -0.4091819,0.064 -0.6181641,0.064 -0.523439,0 -0.9384776,-0.1523 -1.2451171,-0.457 -0.304688,-0.3047 -0.4570316,-0.7168 -0.4570313,-1.2364 -3e-7,-0.5371 0.1445308,-0.9629 0.4335938,-1.2773 0.2910145,-0.3164 0.6826157,-0.4746 1.1748046,-0.4746 0.4414039,0 0.7900364,0.1426 1.0458985,0.4277 0.2578092,0.2832 0.3867154,0.669 0.3867187,1.1572 m -0.5390625,-0.1582 c -0.00391,-0.2949 -0.086917,-0.5302 -0.2490234,-0.706 -0.1601587,-0.1758 -0.3730491,-0.2637 -0.6386719,-0.2637 -0.3007829,0 -0.5419936,0.085 -0.7236328,0.2549 -0.1796885,0.1699 -0.2832041,0.4092 -0.3105469,0.7178 l 1.921875,0"
         id="path3850"
         inkscape:connector-curvature="0" />
      <path
         d="m 10.298904,1045.8119 c -0.06055,-0.035 -0.126956,-0.061 -0.199219,-0.076 -0.07031,-0.018 -0.1484397,-0.026 -0.2343751,-0.026 -0.3046892,0 -0.539064,0.1 -0.703125,0.2988 -0.1621105,0.1972 -0.2431652,0.4814 -0.2431641,0.8525 l 0,1.7285 -0.5419922,0 0,-3.2812 0.5419922,0 0,0.5097 c 0.1132801,-0.1992 0.2607409,-0.3466 0.4423828,-0.4423 0.181639,-0.098 0.4023419,-0.1465 0.6621094,-0.1465 0.03711,0 0.07812,0 0.123047,0.01 0.04492,0 0.09472,0.011 0.149414,0.021 l 0.0029,0.5537"
         id="path3852"
         inkscape:connector-curvature="0" />
      <path
         d="m 10.483474,1045.308 0.571289,0 1.025391,2.7539 1.02539,-2.7539 0.571289,0 -1.230468,3.2812 -0.732422,0 -1.230469,-3.2812"
         id="path3854"
         inkscape:connector-curvature="0" />
      <path
         d="m 17.227615,1046.8138 0,0.2637 -2.478516,0 c 0.02344,0.3711 0.134765,0.6543 0.333984,0.8496 0.201171,0.1934 0.480467,0.2901 0.837891,0.2901 0.207029,0 0.407224,-0.025 0.600586,-0.076 0.19531,-0.051 0.388669,-0.127 0.580078,-0.2285 l 0,0.5097 c -0.193362,0.082 -0.391604,0.1446 -0.594727,0.1875 -0.203127,0.043 -0.409181,0.064 -0.618164,0.064 -0.523439,0 -0.938477,-0.1523 -1.245117,-0.457 -0.304688,-0.3047 -0.457031,-0.7168 -0.457031,-1.2364 0,-0.5371 0.144531,-0.9629 0.433594,-1.2773 0.291014,-0.3164 0.682615,-0.4746 1.174804,-0.4746 0.441404,0 0.790037,0.1426 1.045899,0.4277 0.257809,0.2832 0.386715,0.669 0.386719,1.1572 m -0.539063,-0.1582 c -0.0039,-0.2949 -0.08692,-0.5302 -0.249023,-0.706 -0.160159,-0.1758 -0.373049,-0.2637 -0.638672,-0.2637 -0.300783,0 -0.541994,0.085 -0.723633,0.2549 -0.179689,0.1699 -0.283204,0.4092 -0.310547,0.7178 l 1.921875,0"
         id="path3856"
         inkscape:connector-curvature="0" />
      <path
         d="m 20.013747,1045.8119 c -0.06055,-0.035 -0.126955,-0.061 -0.199218,-0.076 -0.07032,-0.018 -0.14844,-0.026 -0.234375,-0.026 -0.30469,0 -0.539064,0.1 -0.703125,0.2988 -0.162111,0.1972 -0.243166,0.4814 -0.243164,0.8525 l 0,1.7285 -0.541993,0 0,-3.2812 0.541993,0 0,0.5097 c 0.11328,-0.1992 0.26074,-0.3466 0.442382,-0.4423 0.181639,-0.098 0.402342,-0.1465 0.66211,-0.1465 0.03711,0 0.07812,0 0.123047,0.01 0.04492,0 0.09472,0.011 0.149414,0.021 l 0.0029,0.5537"
         id="path3858"
         inkscape:connector-curvature="0" />
    </g>
    <g
       id="g3993"
       transform="translate(-3.7061297,1.8530643)">
      <rect
         y="978.60107"
         x="91.669724"
         height="22.52227"
         width="30.66057"
         id="rect3815"
         style="fill:#ffffff;fill-opacity:0;stroke:#000000;stroke-width:0.84399998;stroke-linecap:round;stroke-linejoin:round;stroke-miterlimit:4;stroke-opacity:1;stroke-dasharray:none;stroke-dashoffset:0" />
      <g
         id="text3817"
         style="font-size:4.52896929px;font-style:normal;font-weight:normal;line-height:125%;letter-spacing:0px;word-spacing:0px;fill:#000000;fill-opacity:1;stroke:none;font-family:Sans"
         transform="translate(25.995528,-6.1943248)">
        <path
           id="path3922"
           d="m 70.139829,985.48901 0.446705,0 0,3.30164 -0.446705,0 0,-3.30164"
           inkscape:connector-curvature="0" />
        <path
           id="path3924"
           d="m 73.516653,987.29574 0,1.49491 -0.406899,0 0,-1.48165 c -2e-6,-0.2344 -0.0457,-0.40984 -0.137108,-0.52631 -0.09141,-0.11647 -0.228514,-0.1747 -0.411322,-0.1747 -0.219668,0 -0.392895,0.07 -0.519682,0.21008 -0.126788,0.14006 -0.190182,0.33098 -0.190181,0.57276 l 0,1.39982 -0.409111,0 0,-2.47678 0.409111,0 0,0.38478 c 0.0973,-0.14889 0.211557,-0.2602 0.342769,-0.33392 0.132683,-0.0737 0.28527,-0.11057 0.457762,-0.11057 0.284533,0 0.499776,0.0885 0.645732,0.26537 0.14595,0.17544 0.218927,0.43418 0.218929,0.77621"
           inkscape:connector-curvature="0" />
        <path
           id="path3926"
           d="m 74.735141,985.61064 0,0.70323 0.838125,0 0,0.31623 -0.838125,0 0,1.34454 c -10e-7,0.20197 0.02727,0.33171 0.08182,0.38921 0.05602,0.0575 0.168803,0.0862 0.338346,0.0862 l 0.417957,0 0,0.34056 -0.417957,0 c -0.314021,0 -0.530739,-0.0582 -0.650155,-0.1747 -0.119416,-0.11794 -0.179125,-0.33171 -0.179124,-0.64131 l 0,-1.34454 -0.298541,0 0,-0.31623 0.298541,0 0,-0.70323 0.409111,0"
           inkscape:connector-curvature="0" />
        <path
           id="path3928"
           d="m 78.22917,987.45053 0,0.19903 -1.870854,0 c 0.01769,0.28011 0.101724,0.49388 0.252101,0.64131 0.151849,0.14595 0.36267,0.21893 0.632464,0.21893 0.156271,0 0.307384,-0.0192 0.453339,-0.0575 0.147425,-0.0383 0.293378,-0.0958 0.437859,-0.17249 l 0,0.38479 c -0.145955,0.0619 -0.295594,0.1091 -0.448916,0.14153 -0.153327,0.0324 -0.308862,0.0486 -0.466608,0.0486 -0.395106,0 -0.708389,-0.11499 -0.93985,-0.34498 -0.229987,-0.22999 -0.34498,-0.54106 -0.34498,-0.93322 0,-0.40542 0.109096,-0.72681 0.327289,-0.96417 0.219666,-0.23883 0.515258,-0.35825 0.886776,-0.35825 0.333184,0 0.596342,0.10763 0.789474,0.32287 0.194601,0.21377 0.291903,0.50494 0.291906,0.8735 m -0.4069,-0.11941 c -0.0029,-0.22262 -0.06561,-0.40027 -0.18797,-0.53295 -0.120892,-0.13268 -0.281588,-0.19903 -0.482087,-0.19903 -0.22704,0 -0.409112,0.0641 -0.546219,0.19239 -0.135634,0.12827 -0.21377,0.30887 -0.234409,0.5418 l 1.450685,-0.002"
           inkscape:connector-curvature="0" />
        <path
           id="path3930"
           d="m 80.332222,986.69423 c -0.0457,-0.0265 -0.09583,-0.0457 -0.150376,-0.0575 -0.05308,-0.0133 -0.112047,-0.0199 -0.176913,-0.0199 -0.229988,0 -0.406901,0.0752 -0.530739,0.22557 -0.122365,0.1489 -0.183548,0.36341 -0.183547,0.64352 l 0,1.30473 -0.409111,0 0,-2.47678 0.409111,0 0,0.38478 c 0.08551,-0.15037 0.196815,-0.26168 0.333923,-0.33392 0.137106,-0.0737 0.303699,-0.11057 0.499779,-0.11057 0.02801,0 0.05897,0.002 0.09288,0.007 0.03391,0.003 0.0715,0.008 0.112782,0.0155 l 0.0022,0.41795"
           inkscape:connector-curvature="0" />
        <path
           id="path3932"
           d="m 82.017316,985.34969 0,0.33835 -0.389208,0 c -0.145954,0 -0.247679,0.0295 -0.305175,0.0885 -0.05602,0.059 -0.08403,0.16512 -0.08403,0.31844 l 0,0.21893 0.670057,0 0,0.31623 -0.670057,0 0,2.16055 -0.409111,0 0,-2.16055 -0.389209,0 0,-0.31623 0.389209,0 0,-0.17249 c -10e-7,-0.27569 0.06413,-0.47619 0.192393,-0.6015 0.128261,-0.12679 0.33171,-0.19018 0.610349,-0.19019 l 0.384785,0"
           inkscape:connector-curvature="0" />
        <path
           id="path3934"
           d="m 83.48127,987.54563 c -0.328764,0 -0.556539,0.0376 -0.683326,0.11278 -0.126788,0.0752 -0.190182,0.20345 -0.190181,0.38478 -1e-6,0.14448 0.04718,0.25948 0.14153,0.34498 0.09583,0.084 0.225563,0.12605 0.389208,0.12605 0.225563,0 0.406161,-0.0796 0.541796,-0.23883 0.137106,-0.16069 0.205659,-0.37373 0.205661,-0.6391 l 0,-0.0907 -0.404688,0 m 0.811588,-0.16807 0,1.41309 -0.4069,0 0,-0.37594 c -0.09288,0.15038 -0.208611,0.26168 -0.347191,0.33392 -0.138583,0.0708 -0.308125,0.10615 -0.508625,0.10615 -0.253576,0 -0.455551,-0.0708 -0.605926,-0.2123 -0.148902,-0.143 -0.223353,-0.33392 -0.223353,-0.57275 0,-0.27864 0.09288,-0.48872 0.278638,-0.63025 0.187232,-0.14153 0.46587,-0.2123 0.835913,-0.2123 l 0.570544,0 0,-0.0398 c -2e-6,-0.18723 -0.06192,-0.33171 -0.185758,-0.43344 -0.122367,-0.1032 -0.294856,-0.1548 -0.51747,-0.1548 -0.141532,0 -0.279376,0.017 -0.413534,0.0509 -0.13416,0.0339 -0.263159,0.0848 -0.386997,0.15259 l 0,-0.37594 c 0.148901,-0.0575 0.29338,-0.10025 0.433436,-0.12826 0.140055,-0.0295 0.276426,-0.0442 0.409111,-0.0442 0.358247,0 0.625828,0.0929 0.802743,0.27864 0.17691,0.18576 0.265366,0.46735 0.265369,0.84476"
           inkscape:connector-curvature="0" />
        <path
           id="path3936"
           d="m 86.915592,986.40896 0,0.38036 c -0.114996,-0.0634 -0.230726,-0.11057 -0.347192,-0.14153 -0.114995,-0.0324 -0.231462,-0.0486 -0.349403,-0.0486 -0.263896,0 -0.46882,0.084 -0.614772,0.2521 -0.145954,0.1666 -0.21893,0.40101 -0.21893,0.70323 0,0.30223 0.07298,0.53737 0.21893,0.70544 0.145952,0.16659 0.350876,0.24989 0.614772,0.24989 0.117941,0 0.234408,-0.0155 0.349403,-0.0464 0.116466,-0.0324 0.232196,-0.0803 0.347192,-0.14374 l 0,0.37594 c -0.113522,0.0531 -0.231463,0.0929 -0.353826,0.11941 -0.120892,0.0265 -0.249891,0.0398 -0.386997,0.0398 -0.372992,0 -0.669321,-0.1172 -0.888987,-0.35161 -0.219667,-0.23441 -0.329501,-0.55064 -0.3295,-0.9487 -10e-7,-0.40395 0.11057,-0.72165 0.331711,-0.95312 0.222615,-0.23146 0.527052,-0.34719 0.913313,-0.34719 0.125312,0 0.247676,0.0133 0.367094,0.0398 0.119414,0.0251 0.235145,0.0634 0.347192,0.11499"
           inkscape:connector-curvature="0" />
        <path
           id="path3938"
           d="m 89.746197,987.45053 0,0.19903 -1.870854,0 c 0.01769,0.28011 0.101724,0.49388 0.252101,0.64131 0.151849,0.14595 0.36267,0.21893 0.632463,0.21893 0.156272,0 0.307385,-0.0192 0.45334,-0.0575 0.147425,-0.0383 0.293378,-0.0958 0.437859,-0.17249 l 0,0.38479 c -0.145955,0.0619 -0.295594,0.1091 -0.448916,0.14153 -0.153327,0.0324 -0.308862,0.0486 -0.466608,0.0486 -0.395107,0 -0.708389,-0.11499 -0.93985,-0.34498 -0.229987,-0.22999 -0.34498,-0.54106 -0.34498,-0.93322 0,-0.40542 0.109096,-0.72681 0.327289,-0.96417 0.219666,-0.23883 0.515258,-0.35825 0.886776,-0.35825 0.333184,0 0.596342,0.10763 0.789473,0.32287 0.194602,0.21377 0.291904,0.50494 0.291907,0.8735 m -0.4069,-0.11941 c -0.003,-0.22262 -0.06561,-0.40027 -0.18797,-0.53295 -0.120892,-0.13268 -0.281588,-0.19903 -0.482087,-0.19903 -0.22704,0 -0.409112,0.0641 -0.546219,0.19239 -0.135634,0.12827 -0.21377,0.30887 -0.234409,0.5418 l 1.450685,-0.002"
           inkscape:connector-curvature="0" />
        <path
           id="path3940"
           d="m 91.992991,986.38685 0,0.38478 c -0.114995,-0.059 -0.234411,-0.1032 -0.358248,-0.13268 -0.123841,-0.0295 -0.252102,-0.0442 -0.384786,-0.0442 -0.201976,0 -0.353826,0.031 -0.45555,0.0929 -0.100252,0.0619 -0.150377,0.1548 -0.150376,0.27864 -10e-7,0.0944 0.03612,0.1688 0.108359,0.22335 0.07224,0.0531 0.217454,0.10394 0.435648,0.15259 l 0.139319,0.031 c 0.288956,0.0619 0.49388,0.14964 0.614772,0.26315 0.122363,0.11205 0.183545,0.26906 0.183547,0.47103 -2e-6,0.22999 -0.09141,0.41206 -0.274215,0.54622 -0.181337,0.13416 -0.431226,0.20124 -0.749668,0.20124 -0.132686,0 -0.271267,-0.0133 -0.415745,-0.0398 -0.143006,-0.0251 -0.294118,-0.0634 -0.45334,-0.11499 l 0,-0.42017 c 0.150376,0.0781 0.29854,0.13711 0.444494,0.17692 0.145952,0.0383 0.290431,0.0575 0.433436,0.0575 0.191655,0 0.339082,-0.0324 0.442283,-0.0973 0.103197,-0.0663 0.154797,-0.15922 0.154798,-0.27864 -10e-7,-0.11057 -0.03759,-0.19534 -0.112782,-0.25431 -0.07372,-0.059 -0.236622,-0.11573 -0.488721,-0.17028 l -0.141531,-0.0332 c -0.252101,-0.0531 -0.434174,-0.13416 -0.546218,-0.24325 -0.112045,-0.11057 -0.168068,-0.26169 -0.168067,-0.45334 -10e-7,-0.23294 0.08256,-0.4128 0.247678,-0.53959 0.165118,-0.12678 0.399527,-0.19018 0.703228,-0.19018 0.150375,0 0.291905,0.0111 0.424591,0.0332 0.132683,0.0221 0.255048,0.0553 0.367094,0.0995"
           inkscape:connector-curvature="0" />
      </g>
      <path
         sodipodi:nodetypes="ccc"
         inkscape:connector-curvature="0"
         id="path3823"
         d="m 97.89242,984.3968 c 3.80548,0.1568 5.97268,1.48377 6.24567,4.16377 0.12285,3.813 -5.56931,-3.65703 -9.89037,-0.22"
         style="fill:none;stroke:#000000;stroke-width:1;stroke-linecap:butt;stroke-linejoin:miter;stroke-miterlimit:4;stroke-opacity:1;stroke-dasharray:none;stroke-dashoffset:0" />
      <g
         id="text3825"
         style="font-size:3.40161657px;font-style:normal;font-weight:normal;line-height:125%;letter-spacing:0px;word-spacing:0px;fill:#000000;fill-opacity:1;stroke:none;font-family:Sans"
         transform="translate(25.995528,-6.1943248)">
        <path
           id="path3943"
           d="m 81.999999,991.7118 0.338833,0 0.521537,2.09611 0.519876,-2.09611 0.377034,0 0.521537,2.09611 0.519876,-2.09611 0.340494,0 -0.622855,2.47979 -0.42188,0 -0.523198,-2.15259 -0.52818,2.15259 -0.421881,0 -0.621193,-2.47979"
           inkscape:connector-curvature="0" />
      </g>
      <g
         id="text3825-7"
         style="font-size:3.40161657px;font-style:normal;font-weight:normal;line-height:125%;letter-spacing:0px;word-spacing:0px;fill:#000000;fill-opacity:1;stroke:none;font-family:Sans"
         transform="translate(25.995528,-6.1943248)">
        <path
           id="path3950"
           d="m 83.596168,998.21048 0,0.32721 c -0.12734,-0.0609 -0.247482,-0.1063 -0.360425,-0.1362 -0.112945,-0.0299 -0.222014,-0.0448 -0.327206,-0.0448 -0.182705,1e-5 -0.323885,0.0354 -0.423541,0.10631 -0.09855,0.0709 -0.147825,0.17163 -0.147824,0.30229 -10e-7,0.10962 0.03266,0.19267 0.098,0.24914 0.06644,0.0554 0.191562,0.10021 0.375374,0.13454 l 0.202636,0.0415 c 0.250247,0.0476 0.434612,0.13177 0.553094,0.25246 0.119587,0.11959 0.179381,0.28015 0.179383,0.48168 -2e-6,0.24029 -0.08084,0.42239 -0.242498,0.54639 -0.16056,0.124 -0.396414,0.1861 -0.707563,0.1861 -0.117375,0 -0.242499,-0.013 -0.375374,-0.04 -0.131769,-0.027 -0.26852,-0.066 -0.410254,-0.1179 l 0,-0.3455 c 0.136198,0.076 0.269627,0.134 0.400288,0.1727 0.130661,0.039 0.259107,0.058 0.38534,0.058 0.191561,0 0.339385,-0.038 0.443472,-0.113 0.104085,-0.075 0.156127,-0.1827 0.156129,-0.32218 -2e-6,-0.1218 -0.03765,-0.21703 -0.112944,-0.28568 -0.07419,-0.0687 -0.196547,-0.12014 -0.367069,-0.15447 l -0.204297,-0.0399 c -0.250249,-0.0498 -0.431292,-0.12789 -0.543129,-0.2342 C 82.055918,999.12899 82,998.98116 82,998.79181 c 0,-0.21924 0.07696,-0.39198 0.230871,-0.51821 0.155021,-0.12623 0.368176,-0.18935 0.639464,-0.18935 0.116265,0 0.234746,0.0105 0.355443,0.0316 0.120693,0.021 0.244157,0.0526 0.37039,0.0947"
           inkscape:connector-curvature="0" />
        <path
           id="path3952"
           d="m 84.557856,998.22045 0,0.52818 0.629498,0 0,0.23751 -0.629498,0 0,1.00986 c -10e-7,0.1517 0.02048,0.2491 0.06145,0.2923 0.04208,0.043 0.126785,0.065 0.254125,0.065 l 0.313918,0 0,0.2558 -0.313918,0 c -0.235855,0 -0.398628,-0.044 -0.488318,-0.1312 -0.08969,-0.089 -0.134537,-0.2492 -0.134537,-0.4817 l 0,-1.00986 -0.224228,0 0,-0.23751 0.224228,0 0,-0.52818 0.307275,0"
           inkscape:connector-curvature="0" />
        <path
           id="path3954"
           d="m 86.436385,999.67377 c -0.246928,10e-6 -0.418005,0.0282 -0.513232,0.0847 -0.09523,0.0565 -0.142842,0.15281 -0.142841,0.28903 -10e-7,0.1085 0.03543,0.1949 0.1063,0.2591 0.07197,0.063 0.169416,0.095 0.292327,0.095 0.169415,0 0.305059,-0.06 0.406931,-0.1794 0.102978,-0.1207 0.154467,-0.28072 0.154468,-0.48004 l 0,-0.0681 -0.303953,0 m 0.609567,-0.12623 0,1.06137 -0.305614,0 0,-0.2824 c -0.06976,0.113 -0.156684,0.1966 -0.260768,0.2508 -0.104087,0.053 -0.231426,0.08 -0.382018,0.08 -0.190455,0 -0.342155,-0.053 -0.455099,-0.1595 -0.111837,-0.1074 -0.167755,-0.2508 -0.167755,-0.4302 0,-0.20927 0.06976,-0.36706 0.209279,-0.47336 0.140626,-0.1063 0.349905,-0.15945 0.627837,-0.15945 l 0.428524,0 0,-0.0299 c -10e-7,-0.14062 -0.04651,-0.24914 -0.139519,-0.32554 -0.09191,-0.0775 -0.221461,-0.11627 -0.388661,-0.11627 -0.106302,0 -0.209834,0.0127 -0.310597,0.0382 -0.100765,0.0255 -0.197653,0.0637 -0.290666,0.11461 l 0,-0.28236 c 0.111837,-0.0432 0.220352,-0.0753 0.325546,-0.0963 0.105192,-0.0221 0.207617,-0.0332 0.307275,-0.0332 0.269072,0 0.470046,0.0698 0.602923,0.20928 0.132874,0.13952 0.199312,0.35102 0.199313,0.63448"
           inkscape:connector-curvature="0" />
        <path
           id="path3956"
           d="m 87.979404,998.22045 0,0.52818 0.629498,0 0,0.23751 -0.629498,0 0,1.00986 c -10e-7,0.1517 0.02048,0.2491 0.06145,0.2923 0.04208,0.043 0.126785,0.065 0.254125,0.065 l 0.313918,0 0,0.2558 -0.313918,0 c -0.235855,0 -0.398628,-0.044 -0.488318,-0.1312 -0.08969,-0.089 -0.134537,-0.2492 -0.134537,-0.4817 l 0,-1.00986 -0.224228,0 0,-0.23751 0.224228,0 0,-0.52818 0.307275,0"
           inkscape:connector-curvature="0" />
        <path
           id="path3958"
           d="m 89.012512,998.74863 0.305614,0 0,1.86027 -0.305614,0 0,-1.86027 m 0,-0.72417 0.305614,0 0,0.387 -0.305614,0 0,-0.387"
           inkscape:connector-curvature="0" />
        <path
           id="path3960"
           d="m 90.676779,998.96289 c -0.163881,0 -0.293434,0.0642 -0.388661,0.19267 -0.09523,0.12734 -0.142842,0.30229 -0.142841,0.52486 -10e-7,0.22257 0.04706,0.39808 0.14118,0.52648 0.09523,0.1274 0.225334,0.191 0.390322,0.191 0.162772,0 0.291772,-0.064 0.387001,-0.1926 0.09523,-0.1285 0.142839,-0.30342 0.142841,-0.52488 -2e-6,-0.22035 -0.04761,-0.39475 -0.142841,-0.5232 -0.09523,-0.12955 -0.224229,-0.19433 -0.387001,-0.19433 m 0,-0.25911 c 0.26575,0 0.474476,0.0864 0.626177,0.25911 0.151698,0.17274 0.227547,0.41192 0.227549,0.71753 -2e-6,0.30451 -0.07585,0.54368 -0.227549,0.71748 -0.151701,0.1728 -0.360427,0.2592 -0.626177,0.2592 -0.266859,0 -0.476138,-0.086 -0.627837,-0.2592 -0.150593,-0.1738 -0.225889,-0.41297 -0.225889,-0.71748 0,-0.30561 0.0753,-0.54479 0.225889,-0.71753 0.151699,-0.17274 0.360978,-0.25911 0.627837,-0.25911"
           inkscape:connector-curvature="0" />
        <path
           id="path3962"
           d="m 93.581773,999.48609 0,1.12281 -0.305614,0 0,-1.11285 c -1e-6,-0.17606 -0.03433,-0.30782 -0.102978,-0.3953 -0.06865,-0.0875 -0.171633,-0.13121 -0.308936,-0.13122 -0.164988,1e-5 -0.295096,0.0526 -0.390322,0.15779 -0.09523,0.1052 -0.142842,0.24859 -0.142842,0.43019 l 0,1.05139 -0.307275,0 0,-1.86027 0.307275,0 0,0.289 c 0.07308,-0.11183 0.158897,-0.19543 0.257447,-0.2508 0.09966,-0.0554 0.214261,-0.083 0.343816,-0.083 0.213706,0 0.375372,0.0664 0.484996,0.19932 0.10962,0.13177 0.164431,0.3261 0.164433,0.58299"
           inkscape:connector-curvature="0" />
        <path
           id="path3964"
           d="m 83.596168,1002.4625 0,0.3272 c -0.12734,-0.061 -0.247482,-0.1063 -0.360425,-0.1362 -0.112945,-0.03 -0.222014,-0.045 -0.327206,-0.045 -0.182705,0 -0.323885,0.035 -0.423541,0.1063 -0.09855,0.071 -0.147825,0.1716 -0.147824,0.3023 -10e-7,0.1096 0.03266,0.1926 0.098,0.2491 0.06644,0.055 0.191562,0.1002 0.375374,0.1345 l 0.202636,0.042 c 0.250247,0.048 0.434612,0.1317 0.553094,0.2524 0.119587,0.1196 0.179381,0.2802 0.179383,0.4817 -2e-6,0.2403 -0.08084,0.4224 -0.242498,0.5464 -0.16056,0.1241 -0.396414,0.1861 -0.707563,0.1861 -0.117375,0 -0.242499,-0.013 -0.375374,-0.04 -0.131769,-0.027 -0.26852,-0.066 -0.410254,-0.1179 l 0,-0.3455 c 0.136198,0.076 0.269627,0.134 0.400288,0.1727 0.130661,0.039 0.259107,0.058 0.38534,0.058 0.191561,0 0.339385,-0.038 0.443472,-0.113 0.104085,-0.075 0.156127,-0.1827 0.156129,-0.3222 -2e-6,-0.1218 -0.03765,-0.217 -0.112944,-0.2857 -0.07419,-0.069 -0.196547,-0.1201 -0.367069,-0.1544 l -0.204297,-0.04 c -0.250249,-0.05 -0.431292,-0.1279 -0.543129,-0.2342 C 82.055918,1003.381 82,1003.2332 82,1003.0438 c 0,-0.2192 0.07696,-0.3919 0.230871,-0.5182 0.155021,-0.1262 0.368176,-0.1893 0.639464,-0.1893 0.116265,0 0.234746,0.01 0.355443,0.031 0.120693,0.021 0.244157,0.053 0.37039,0.095"
           inkscape:connector-curvature="0" />
        <path
           id="path3966"
           d="m 85.84675,1003.8544 0,0.1495 -1.40516,0 c 0.01329,0.2103 0.0764,0.3709 0.189348,0.4816 0.11405,0.1097 0.272394,0.1645 0.47503,0.1645 0.117372,0 0.23087,-0.014 0.340494,-0.043 0.110728,-0.029 0.22035,-0.072 0.328867,-0.1296 l 0,0.289 c -0.109624,0.046 -0.222015,0.082 -0.337172,0.1063 -0.11516,0.024 -0.23198,0.037 -0.350459,0.037 -0.296757,0 -0.532057,-0.086 -0.705902,-0.2591 -0.172739,-0.1728 -0.259108,-0.4064 -0.259108,-0.701 0,-0.3045 0.08194,-0.5458 0.24582,-0.7241 0.164987,-0.1794 0.387,-0.2691 0.666039,-0.2691 0.250248,0 0.4479,0.081 0.592958,0.2425 0.146161,0.1606 0.219243,0.3793 0.219245,0.6561 m -0.305614,-0.09 c -0.0022,-0.1672 -0.04928,-0.3006 -0.141181,-0.4003 -0.0908,-0.1 -0.211495,-0.1495 -0.362086,-0.1495 -0.170524,0 -0.307275,0.048 -0.410253,0.1445 -0.101872,0.096 -0.160559,0.232 -0.176061,0.4069 l 1.089581,0"
           inkscape:connector-curvature="0" />
        <path
           id="path3968"
           d="m 87.426309,1003.2863 c -0.03433,-0.02 -0.07198,-0.034 -0.112944,-0.043 -0.03986,-0.01 -0.08416,-0.015 -0.132876,-0.015 -0.172739,0 -0.305615,0.057 -0.398627,0.1694 -0.09191,0.1119 -0.137859,0.273 -0.137858,0.4833 l 0,0.98 -0.307275,0 0,-1.8603 0.307275,0 0,0.2891 c 0.06422,-0.113 0.147823,-0.1966 0.250803,-0.2508 0.102977,-0.055 0.228102,-0.083 0.375373,-0.083 0.02104,0 0.04429,0 0.06976,0 0.02547,0 0.0537,0.01 0.08471,0.012 l 0.0017,0.3139"
           inkscape:connector-curvature="0" />
        <path
           id="path3970"
           d="m 87.530949,1003.0006 0.323884,0 0.581331,1.5613 0.581331,-1.5613 0.323885,0 -0.697598,1.8603 -0.415236,0 -0.697597,-1.8603"
           inkscape:connector-curvature="0" />
        <path
           id="path3972"
           d="m 91.354445,1003.8544 0,0.1495 -1.40516,0 c 0.01329,0.2103 0.0764,0.3709 0.189348,0.4816 0.114051,0.1097 0.272394,0.1645 0.475031,0.1645 0.117372,0 0.23087,-0.014 0.340494,-0.043 0.110728,-0.029 0.22035,-0.072 0.328867,-0.1296 l 0,0.289 c -0.109624,0.046 -0.222015,0.082 -0.337172,0.1063 -0.11516,0.024 -0.23198,0.037 -0.35046,0.037 -0.296756,0 -0.532057,-0.086 -0.705902,-0.2591 -0.172738,-0.1728 -0.259107,-0.4064 -0.259107,-0.701 0,-0.3045 0.08194,-0.5458 0.24582,-0.7241 0.164987,-0.1794 0.386999,-0.2691 0.666039,-0.2691 0.250248,0 0.4479,0.081 0.592958,0.2425 0.146161,0.1606 0.219243,0.3793 0.219244,0.6561 m -0.305614,-0.09 c -0.0022,-0.1672 -0.04928,-0.3006 -0.14118,-0.4003 -0.0908,-0.1 -0.211495,-0.1495 -0.362086,-0.1495 -0.170525,0 -0.307276,0.048 -0.410254,0.1445 -0.101872,0.096 -0.160558,0.232 -0.17606,0.4069 l 1.08958,0"
           inkscape:connector-curvature="0" />
        <path
           id="path3974"
           d="m 92.934004,1003.2863 c -0.03433,-0.02 -0.07197,-0.034 -0.112944,-0.043 -0.03986,-0.01 -0.08416,-0.015 -0.132876,-0.015 -0.172739,0 -0.305614,0.057 -0.398627,0.1694 -0.09191,0.1119 -0.137859,0.273 -0.137858,0.4833 l 0,0.98 -0.307275,0 0,-1.8603 0.307275,0 0,0.2891 c 0.06422,-0.113 0.147823,-0.1966 0.250803,-0.2508 0.102977,-0.055 0.228102,-0.083 0.375373,-0.083 0.02104,0 0.04429,0 0.06976,0 0.02547,0 0.0537,0.01 0.08471,0.012 l 0.0017,0.3139"
           inkscape:connector-curvature="0" />
      </g>
      <path
         sodipodi:nodetypes="ccc"
         inkscape:connector-curvature="0"
         id="path3823-3"
         d="m 97.36321,992.94097 c 3.80547,0.1568 5.97268,1.4838 6.24567,4.16383 0.12285,3.8129 -5.56931,-3.65703 -9.89037,-0.2201"
         style="fill:none;stroke:#000000;stroke-width:1;stroke-linecap:butt;stroke-linejoin:miter;stroke-miterlimit:4;stroke-opacity:1;stroke-dasharray:1, 1;stroke-dashoffset:0" />
      <path
         inkscape:connector-curvature="0"
         d="m 111.62224,986.17494 0.30561,0 0,1.86027 -0.30561,0 0,-1.86027 m 0,-0.72417 0.30561,0 0,0.387 -0.30561,0 0,-0.387"
         id="path3958-8"
         style="font-size:3.40161657px;font-style:normal;font-weight:normal;line-height:125%;letter-spacing:0px;word-spacing:0px;fill:#000000;fill-opacity:1;stroke:none;font-family:Sans" />
      <path
         inkscape:connector-curvature="0"
         d="m 115.6632,986.95667 0,0.1495 -1.40516,0 c 0.0133,0.2103 0.0764,0.3709 0.18935,0.4816 0.11405,0.1097 0.27239,0.1645 0.47503,0.1645 0.11737,0 0.23087,-0.014 0.34049,-0.043 0.11073,-0.029 0.22035,-0.072 0.32887,-0.1296 l 0,0.289 c -0.10962,0.046 -0.22201,0.082 -0.33717,0.1063 -0.11516,0.024 -0.23198,0.037 -0.35046,0.037 -0.29676,0 -0.53206,-0.086 -0.7059,-0.2591 -0.17274,-0.1728 -0.25911,-0.4064 -0.25911,-0.701 0,-0.3045 0.0819,-0.5458 0.24582,-0.7241 0.16499,-0.1794 0.387,-0.2691 0.66604,-0.2691 0.25025,0 0.4479,0.081 0.59296,0.2425 0.14616,0.1606 0.21924,0.3793 0.21924,0.6561 m -0.30561,-0.09 c -0.002,-0.1672 -0.0493,-0.3006 -0.14118,-0.4003 -0.0908,-0.1 -0.2115,-0.1495 -0.36209,-0.1495 -0.17052,0 -0.30727,0.048 -0.41025,0.1445 -0.10187,0.096 -0.16056,0.232 -0.17606,0.4069 l 1.08958,0"
         id="path3966-6"
         style="font-size:3.40161657px;font-style:normal;font-weight:normal;line-height:125%;letter-spacing:0px;word-spacing:0px;fill:#000000;fill-opacity:1;stroke:none;font-family:Sans" />
      <path
         inkscape:connector-curvature="0"
         d="m 113.70491,986.38857 c -0.0343,-0.02 -0.072,-0.034 -0.11294,-0.043 -0.0399,-0.01 -0.0842,-0.015 -0.13288,-0.015 -0.17274,0 -0.30561,0.057 -0.39863,0.1694 -0.0919,0.1119 -0.13785,0.273 -0.13785,0.4833 l 0,0.98 -0.30728,0 0,-1.8603 0.30728,0 0,0.2891 c 0.0642,-0.113 0.14782,-0.1966 0.2508,-0.2508 0.10298,-0.055 0.2281,-0.083 0.37537,-0.083 0.021,0 0.0443,0 0.0698,0 0.0255,0 0.0537,0.01 0.0847,0.012 l 0.002,0.3139"
         id="path3968-1"
         style="font-size:3.40161657px;font-style:normal;font-weight:normal;line-height:125%;letter-spacing:0px;word-spacing:0px;fill:#000000;fill-opacity:1;stroke:none;font-family:Sans" />
    </g>
  </g>
</svg>
