<?xml version="1.0" encoding="UTF-8" standalone="no"?>
<!-- Created with Inkscape (http://www.inkscape.org/) -->

<svg
   xmlns:dc="http://purl.org/dc/elements/1.1/"
   xmlns:cc="http://creativecommons.org/ns#"
   xmlns:rdf="http://www.w3.org/1999/02/22-rdf-syntax-ns#"
   xmlns:svg="http://www.w3.org/2000/svg"
   xmlns="http://www.w3.org/2000/svg"
   xmlns:sodipodi="http://sodipodi.sourceforge.net/DTD/sodipodi-0.dtd"
   xmlns:inkscape="http://www.inkscape.org/namespaces/inkscape"
   width="120"
   height="60"
   id="svg4029"
   version="1.1"
   inkscape:version="0.48.4 r9939"
   sodipodi:docname="station.pdf">
  <defs
     id="defs4031">
    <inkscape:perspective
       sodipodi:type="inkscape:persp3d"
       inkscape:vp_x="-0.536302 : 30.201968 : 1"
       inkscape:vp_y="0 : 1055.4232 : 0"
       inkscape:vp_z="124.91365 : 30.201968 : 1"
       inkscape:persp3d-origin="62.188678 : 19.647737 : 1"
       id="perspective4737" />
    <inkscape:perspective
       sodipodi:type="inkscape:persp3d"
       inkscape:vp_x="16.773598 : -495.05119 : 1"
       inkscape:vp_y="0 : 1055.4232 : 0"
       inkscape:vp_z="142.22355 : -495.05119 : 1"
       inkscape:persp3d-origin="79.498578 : -505.60542 : 1"
       id="perspective4737-6" />
    <inkscape:perspective
       sodipodi:type="inkscape:persp3d"
       inkscape:vp_x="64.149753 : -429.64382 : 1"
       inkscape:vp_y="0 : 1055.4232 : 0"
       inkscape:vp_z="189.59971 : -429.64382 : 1"
       inkscape:persp3d-origin="126.87473 : -440.19805 : 1"
       id="perspective4737-8" />
    <inkscape:perspective
       sodipodi:type="inkscape:persp3d"
       inkscape:vp_x="46.917367 : -475.80424 : 1"
       inkscape:vp_y="0 : 1055.4232 : 0"
       inkscape:vp_z="172.36732 : -475.80424 : 1"
       inkscape:persp3d-origin="109.64235 : -486.35847 : 1"
       id="perspective4737-1" />
    <inkscape:perspective
       sodipodi:type="inkscape:persp3d"
       inkscape:vp_x="48.502413 : 34.905288 : 1"
       inkscape:vp_y="0 : 1055.4232 : 0"
       inkscape:vp_z="173.95237 : 34.905288 : 1"
       inkscape:persp3d-origin="111.22739 : 24.351058 : 1"
       id="perspective4737-5" />
  </defs>
  <sodipodi:namedview
     id="base"
     pagecolor="#ffffff"
     bordercolor="#666666"
     borderopacity="1.0"
     inkscape:pageopacity="0.0"
     inkscape:pageshadow="2"
     inkscape:zoom="8"
     inkscape:cx="7.1223122"
     inkscape:cy="13.323378"
     inkscape:document-units="px"
     inkscape:current-layer="layer1"
     showgrid="false"
     inkscape:window-width="1920"
     inkscape:window-height="1017"
     inkscape:window-x="1272"
     inkscape:window-y="-8"
     inkscape:window-maximized="1"
     showguides="true"
     inkscape:guide-bbox="true" />
  <metadata
     id="metadata4034">
    <rdf:RDF>
      <cc:Work
         rdf:about="">
        <dc:format>image/svg+xml</dc:format>
        <dc:type
           rdf:resource="http://purl.org/dc/dcmitype/StillImage" />
        <dc:title></dc:title>
      </cc:Work>
    </rdf:RDF>
  </metadata>
  <g
     inkscape:label="Layer 1"
     inkscape:groupmode="layer"
     id="layer1"
     transform="translate(0,-992.36218)">
    <g
       sodipodi:type="inkscape:box3d"
       style="fill:#787878;fill-opacity:1;stroke:#000000;stroke-width:1;stroke-linecap:round;stroke-linejoin:round;stroke-miterlimit:4;stroke-opacity:1;stroke-dasharray:none;stroke-dashoffset:0"
       id="g3076"
       inkscape:perspectiveID="#perspective4737"
       inkscape:corner0="0.047169303 : 0.019424106 : 0 : 1"
       inkscape:corner7="-0.0033222686 : -0.00046511599 : 0.15099847 : 1">
      <path
         sodipodi:type="inkscape:box3dside"
         id="path3086"
         style="fill:#787878;fill-opacity:1;fill-rule:evenodd;stroke:#000000;stroke-width:0.93951344;stroke-miterlimit:4;stroke-opacity:1;stroke-dasharray:none"
         inkscape:box3dsidetype="13"
         d="m 59.363258,1032.7078 3.034504,0.5344 8.225145,-1.4581 -2.998695,-0.4055 z" />
      <path
         sodipodi:type="inkscape:box3dside"
         id="path3078"
         style="fill:#787878;fill-opacity:1;fill-rule:evenodd;stroke:#000000;stroke-width:0.93951344;stroke-miterlimit:4;stroke-opacity:1;stroke-dasharray:none"
         inkscape:box3dsidetype="6"
         d="m 59.363258,1012.6618 0,20.046 8.260954,-1.3292 0,-17.5197 z" />
      <path
         sodipodi:type="inkscape:box3dside"
         id="path3088"
         style="fill:#787878;fill-opacity:1;fill-rule:evenodd;stroke:#000000;stroke-width:0.93951344;stroke-miterlimit:4;stroke-opacity:1;stroke-dasharray:none"
         inkscape:box3dsidetype="11"
         d="m 67.624212,1013.8589 2.998695,-0.3653 0,18.2905 -2.998695,-0.4055 z" />
      <path
         sodipodi:type="inkscape:box3dside"
         id="path3080"
         style="fill:#787878;fill-opacity:1;fill-rule:evenodd;stroke:#000000;stroke-width:0.93951344;stroke-miterlimit:4;stroke-opacity:1;stroke-dasharray:none"
         inkscape:box3dsidetype="5"
         d="m 59.363258,1012.6618 3.034504,-0.4812 8.225145,1.313 -2.998695,0.3653 z" />
      <path
         sodipodi:type="inkscape:box3dside"
         id="path3084"
         style="fill:#787878;fill-opacity:1;fill-rule:evenodd;stroke:#000000;stroke-width:0.93951344;stroke-miterlimit:4;stroke-opacity:1;stroke-dasharray:none"
         inkscape:box3dsidetype="14"
         d="m 62.397762,1012.1806 0,21.0616 8.225145,-1.4581 0,-18.2905 z" />
      <path
         sodipodi:type="inkscape:box3dside"
         id="path3082"
         style="fill:#787878;fill-opacity:1;fill-rule:evenodd;stroke:#000000;stroke-width:0.93951344;stroke-miterlimit:4;stroke-opacity:1;stroke-dasharray:none"
         inkscape:box3dsidetype="3"
         d="m 59.363258,1012.6618 3.034504,-0.4812 0,21.0616 -3.034504,-0.5344 z" />
    </g>
    <g
       style="stroke:#000000;stroke-opacity:1"
       id="g4133">
      <path
         inkscape:connector-curvature="0"
         transform="translate(0,992.36218)"
         id="path3885"
         d="m 61.700584,21.952651 c -0.688467,-0.303219 -1.455069,-0.343465 -2.263059,-0.07121 -2.986535,1.006319 -5.4076,5.901016 -5.4076,10.932611 l 0,0 c 0,5.031595 2.421065,8.294726 5.4076,7.288407 0.811399,-0.273403 1.58106,-0.833819 2.271769,-1.606016"
         style="fill:none;stroke:#000000;stroke-width:1.37199998;stroke-linecap:round;stroke-miterlimit:4;stroke-opacity:1;stroke-dasharray:none" />
      <path
         transform="matrix(-0.05945085,0.02003208,0,0.12923923,70.221854,968.34266)"
         d="m 191.42391,395.5105 c 0,4.32366 -4.5226,7.82868 -10.10152,7.82868 -5.57892,0 -10.10153,-3.50502 -10.10153,-7.82868 0,-4.32366 4.52261,-7.82868 10.10153,-7.82868 5.57892,0 10.10152,3.50502 10.10152,7.82868 z"
         sodipodi:ry="7.8286824"
         sodipodi:rx="10.101525"
         sodipodi:cy="395.5105"
         sodipodi:cx="181.32239"
         id="path3767-3-3"
         style="fill:#000000;fill-opacity:1;stroke:#000000;stroke-width:1;stroke-miterlimit:4;stroke-opacity:1;stroke-dasharray:none"
         sodipodi:type="arc" />
      <path
         sodipodi:nodetypes="cc"
         inkscape:connector-curvature="0"
         id="path3769-1-6"
         d="m 59.436183,1023.1724 c -3.095121,-2.4151 -3.21972,-8.0729 -4.782363,-15.0854"
         style="fill:none;stroke:#000000;stroke-width:1.37220609;stroke-linecap:butt;stroke-linejoin:round;stroke-miterlimit:4;stroke-opacity:1;stroke-dasharray:none" />
      <path
         transform="matrix(-0.10100474,0.03403375,0,0.17261136,59.196064,949.84831)"
         d="m 240.41631,426.82523 c 0,29.14985 -23.96982,52.78047 -53.53809,52.78047 -29.56827,0 -53.53809,-23.63062 -53.53809,-52.78047 0,-29.14985 23.96982,-52.78048 53.53809,-52.78048 29.56827,0 53.53809,23.63063 53.53809,52.78048 z"
         sodipodi:ry="52.780472"
         sodipodi:rx="53.538086"
         sodipodi:cy="426.82523"
         sodipodi:cx="186.87822"
         id="path2997-5-4-3"
         style="fill:none;stroke:#000000;stroke-width:10.39235115;stroke-miterlimit:4;stroke-opacity:1;stroke-dasharray:none"
         sodipodi:type="arc" />
      <path
         transform="matrix(-0.05945085,0.02003208,0,0.12923923,50.993455,974.90172)"
         d="m 191.42391,395.5105 c 0,4.32366 -4.5226,7.82868 -10.10152,7.82868 -5.57892,0 -10.10153,-3.50502 -10.10153,-7.82868 0,-4.32366 4.52261,-7.82868 10.10153,-7.82868 5.57892,0 10.10152,3.50502 10.10152,7.82868 z"
         sodipodi:ry="7.8286824"
         sodipodi:rx="10.101525"
         sodipodi:cy="395.5105"
         sodipodi:cx="181.32239"
         id="path3767-9-4-4"
         style="fill:#000000;fill-opacity:1;stroke:#000000;stroke-width:1;stroke-miterlimit:4;stroke-opacity:1;stroke-dasharray:none"
         sodipodi:type="arc" />
      <path
         sodipodi:nodetypes="cc"
         inkscape:connector-curvature="0"
         id="path3807-8-8"
         d="m 40.106894,1029.9553 c 0.480563,-1.3314 5.820145,-14.6453 5.820145,-14.6453"
         style="fill:none;stroke:#000000;stroke-width:1.37220609;stroke-linecap:butt;stroke-linejoin:miter;stroke-miterlimit:4;stroke-opacity:1;stroke-dasharray:none" />
      <path
         sodipodi:nodetypes="cc"
         inkscape:connector-curvature="0"
         id="path3809-8-0"
         d="m 45.66006,1015.5798 9.824832,-3.4904"
         style="fill:none;stroke:#000000;stroke-width:1.37220609;stroke-linecap:butt;stroke-linejoin:miter;stroke-miterlimit:4;stroke-opacity:1;stroke-dasharray:none" />
      <path
         sodipodi:nodetypes="cc"
         inkscape:connector-curvature="0"
         id="path3811-4-0"
         d="m 48.863808,1029.7934 c -0.320374,-1.1515 -3.470727,-17.0922 -3.470727,-17.0922"
         style="fill:none;stroke:#000000;stroke-width:1.37220609;stroke-linecap:butt;stroke-linejoin:miter;stroke-miterlimit:4;stroke-opacity:1;stroke-dasharray:none" />
      <path
         transform="matrix(-0.09908474,0.03338681,0,0.21539872,66.674197,937.97721)"
         d="m 191.42391,395.5105 c 0,4.32366 -4.5226,7.82868 -10.10152,7.82868 -5.57892,0 -10.10153,-3.50502 -10.10153,-7.82868 0,-4.32366 4.52261,-7.82868 10.10153,-7.82868 5.57892,0 10.10152,3.50502 10.10152,7.82868 z"
         sodipodi:ry="7.8286824"
         sodipodi:rx="10.101525"
         sodipodi:cy="395.5105"
         sodipodi:cx="181.32239"
         id="path3767-9-3-0-1"
         style="fill:#000000;fill-opacity:1;stroke:#000000;stroke-width:1;stroke-miterlimit:4;stroke-opacity:1;stroke-dasharray:none"
         sodipodi:type="arc" />
      <path
         sodipodi:nodetypes="cc"
         inkscape:connector-curvature="0"
         id="path3831-7-7"
         d="m 48.917205,1029.4156 -8.756915,0.2519"
         style="fill:none;stroke:#000000;stroke-width:1.37220609;stroke-linecap:butt;stroke-linejoin:miter;stroke-miterlimit:4;stroke-opacity:1;stroke-dasharray:none" />
      <path
         sodipodi:nodetypes="cc"
         inkscape:connector-curvature="0"
         id="path3833-6-1"
         d="m 55.591683,1013.9426 -6.674478,15.2031"
         style="fill:none;stroke:#000000;stroke-width:1.37220609;stroke-linecap:butt;stroke-linejoin:miter;stroke-miterlimit:4;stroke-opacity:1;stroke-dasharray:none" />
      <path
         sodipodi:nodetypes="cccc"
         inkscape:connector-curvature="0"
         id="path3835-6-3"
         d="m 54.483671,1008.7237 0.62745,-2.2657 -0.961092,-1.1155 -1.973532,0.665"
         style="fill:none;stroke:#000000;stroke-width:0.96054429;stroke-linecap:butt;stroke-linejoin:miter;stroke-miterlimit:4;stroke-opacity:1;stroke-dasharray:none" />
      <path
         sodipodi:nodetypes="ccc"
         inkscape:connector-curvature="0"
         id="path3837-4-0"
         d="m 48.650226,1010.884 -5.76675,1.6732 c -0.89686,3.7311 7.19641,-1.1608 5.76675,-1.6732 z"
         style="fill:#000000;fill-opacity:1;stroke:#000000;stroke-width:0.13722061px;stroke-linecap:round;stroke-linejoin:round;stroke-opacity:1" />
      <g
         style="stroke:#000000;stroke-opacity:1"
         transform="matrix(-0.10571834,0.03562201,0,0.17811003,85.17297,925.38943)"
         id="g3873-2-2">
        <path
           style="fill:none;stroke:#000000;stroke-width:5;stroke-linecap:butt;stroke-linejoin:miter;stroke-miterlimit:4;stroke-opacity:1;stroke-dasharray:none"
           d="m 345.85995,520.04769 4.54569,21.71827"
           id="path3839-6-9"
           inkscape:connector-curvature="0"
           sodipodi:nodetypes="cc" />
        <path
           style="fill:none;stroke:#000000;stroke-width:5;stroke-linecap:butt;stroke-linejoin:miter;stroke-miterlimit:4;stroke-opacity:1;stroke-dasharray:none"
           d="m 343.45467,540.63325 13.3508,-0.3265"
           id="path3841-6-6"
           inkscape:connector-curvature="0"
           sodipodi:nodetypes="cc" />
      </g>
      <g
         id="g3873-0-2-2"
         style="stroke:#000000;stroke-opacity:1;display:inline"
         transform="matrix(0.10571834,-0.03562201,0,-0.17811003,12.402348,1133.3091)">
        <path
           style="fill:none;stroke:#000000;stroke-width:5;stroke-linecap:butt;stroke-linejoin:miter;stroke-miterlimit:4;stroke-opacity:1;stroke-dasharray:none"
           d="m 345.85995,520.04769 4.54569,21.71827"
           id="path3839-2-3-0"
           inkscape:connector-curvature="0"
           sodipodi:nodetypes="cc" />
        <path
           style="fill:none;stroke:#000000;stroke-width:5;stroke-linecap:butt;stroke-linejoin:miter;stroke-miterlimit:4;stroke-opacity:1;stroke-dasharray:none"
           d="m 343.45467,540.63325 13.3508,-0.3265"
           id="path3841-9-5-2"
           inkscape:connector-curvature="0"
           sodipodi:nodetypes="cc" />
      </g>
    </g>
    <path
       style="fill:#ffffff;fill-opacity:1;stroke:#000000;stroke-width:0.54993087px;stroke-linecap:butt;stroke-linejoin:round;stroke-opacity:1"
       d="m 4.2749651,1008.5481 c 0,0.6133 0.00473,27.4969 0.00473,27.4969 l 5.7191925,6.0422 14.0038154,-5.7242 0.263584,-19.455 z"
       id="path5345"
       inkscape:connector-curvature="0"
       sodipodi:nodetypes="cccccc" />
    <rect
       style="fill:#ffffff;fill-opacity:1;stroke:#000000;stroke-width:0.54993087;stroke-linecap:butt;stroke-linejoin:round;stroke-miterlimit:4;stroke-opacity:1;stroke-dasharray:none"
       id="rect5325"
       width="15.379394"
       height="15.379393"
       x="-373.78183"
       y="936.57501"
       transform="matrix(0.92718386,-0.37460659,0.37460659,0.92718386,0,0)" />
    <path
       style="fill:none;stroke:#000000;stroke-width:0.54993087px;stroke-linecap:butt;stroke-linejoin:miter;stroke-opacity:1"
       d="m 10.006869,1022.6693 0,19.2485"
       id="path5349"
       inkscape:connector-curvature="0"
       sodipodi:nodetypes="cc" />
    <rect
       style="fill:#ffffff;fill-opacity:1;stroke:#000000;stroke-width:0.44105104;stroke-linecap:butt;stroke-linejoin:round;stroke-miterlimit:4;stroke-opacity:1;stroke-dasharray:none"
       id="rect5325-1"
       width="12.334455"
       height="12.334454"
       x="-372.23462"
       y="937.83508"
       transform="matrix(0.92718386,-0.37460659,0.37460659,0.92718386,0,0)" />
    <g
       transform="matrix(0.92718386,-0.37460659,0.37460659,0.92718386,0,0)"
       style="font-size:14.03910065px;font-style:normal;font-weight:normal;line-height:125%;letter-spacing:0px;word-spacing:0px;fill:#000000;fill-opacity:1;stroke:none;font-family:Sans"
       id="text5409">
      <path
         d="m -371.1225,939.67201 0,0.74994 0.4442,0 c 0.14898,0 0.25912,-0.0306 0.33042,-0.0919 0.0722,-0.0622 0.1083,-0.15675 0.1083,-0.2838 0,-0.12796 -0.0361,-0.2221 -0.1083,-0.28242 -0.0713,-0.0612 -0.18144,-0.0919 -0.33042,-0.0919 l -0.4442,0 m 0,-0.8418 0,0.61695 0.40993,0 c 0.13527,10e-6 0.23581,-0.0251 0.30162,-0.0754 0.0667,-0.0512 0.10008,-0.12887 0.10008,-0.23307 0,-0.10328 -0.0334,-0.18052 -0.10008,-0.2317 -0.0658,-0.0512 -0.16635,-0.0768 -0.30162,-0.0768 l -0.40993,0 m -0.27695,-0.22759 0.70744,0 c 0.21114,10e-6 0.37383,0.0439 0.48808,0.13162 0.11425,0.0878 0.17138,0.21251 0.17138,0.37429 0,0.12522 -0.0292,0.22484 -0.0877,0.29887 -0.0585,0.074 -0.14441,0.1202 -0.25775,0.13848 0.13619,0.0292 0.24176,0.0905 0.31671,0.18371 0.0759,0.0923 0.11379,0.20794 0.11379,0.34687 0,0.1828 -0.0622,0.32401 -0.18646,0.42364 -0.1243,0.0996 -0.30116,0.14944 -0.53058,0.14944 l -0.73486,0 0,-2.04692"
         style="font-size:2.80782008px"
         id="path5520" />
      <path
         d="m -368.89051,939.29087 c -0.13527,0 -0.24221,0.053 -0.32081,0.15904 -0.0786,0.10511 -0.11791,0.24952 -0.11791,0.43323 0,0.18372 0.0388,0.32859 0.11654,0.43461 0.0786,0.10511 0.186,0.15767 0.32218,0.15767 0.13436,0 0.24084,-0.053 0.31945,-0.15904 0.0786,-0.10602 0.1179,-0.25043 0.11791,-0.43324 -1e-5,-0.18188 -0.0393,-0.32584 -0.11791,-0.43186 -0.0786,-0.10694 -0.18509,-0.16041 -0.31945,-0.16041 m 0,-0.21388 c 0.21936,0 0.39165,0.0713 0.51687,0.21388 0.12522,0.14259 0.18783,0.34001 0.18783,0.59227 0,0.25136 -0.0626,0.44878 -0.18783,0.59228 -0.12522,0.14258 -0.29751,0.21388 -0.51687,0.21388 -0.22027,0 -0.39302,-0.0713 -0.51824,-0.21388 -0.1243,-0.1435 -0.18645,-0.34092 -0.18645,-0.59228 0,-0.25226 0.0621,-0.44968 0.18645,-0.59227 0.12522,-0.14258 0.29797,-0.21388 0.51824,-0.21388"
         style="font-size:2.80782008px"
         id="path5522" />
      <path
         d="m -367.17401,939.29087 c -0.13527,0 -0.24221,0.053 -0.32081,0.15904 -0.0786,0.10511 -0.11791,0.24952 -0.11791,0.43323 0,0.18372 0.0389,0.32859 0.11654,0.43461 0.0786,0.10511 0.186,0.15767 0.32218,0.15767 0.13436,0 0.24084,-0.053 0.31945,-0.15904 0.0786,-0.10602 0.1179,-0.25043 0.11791,-0.43324 -10e-6,-0.18188 -0.0393,-0.32584 -0.11791,-0.43186 -0.0786,-0.10694 -0.18509,-0.16041 -0.31945,-0.16041 m 0,-0.21388 c 0.21936,0 0.39165,0.0713 0.51687,0.21388 0.12522,0.14259 0.18783,0.34001 0.18783,0.59227 0,0.25136 -0.0626,0.44878 -0.18783,0.59228 -0.12522,0.14258 -0.29751,0.21388 -0.51687,0.21388 -0.22027,0 -0.39302,-0.0713 -0.51824,-0.21388 -0.1243,-0.1435 -0.18645,-0.34092 -0.18645,-0.59228 0,-0.25226 0.0621,-0.44968 0.18645,-0.59227 0.12522,-0.14258 0.29797,-0.21388 0.51824,-0.21388"
         style="font-size:2.80782008px"
         id="path5524" />
      <path
         d="m -366.06212,938.51625 0.25364,0 0,1.25996 0.75268,-0.6622 0.32218,0 -0.81437,0.71841 0.84865,0.81712 -0.32904,0 -0.7801,-0.74994 0,0.74994 -0.25364,0 0,-2.13329"
         style="font-size:2.80782008px"
         id="path5526" />
      <path
         d="m -364.42377,939.11401 0.25227,0 0,1.53553 -0.25227,0 0,-1.53553 m 0,-0.59776 0.25227,0 0,0.31945 -0.25227,0 0,-0.31945"
         style="font-size:2.80782008px"
         id="path5528" />
      <path
         d="m -362.36863,939.72274 0,0.9268 -0.25227,0 0,-0.91858 c 0,-0.14532 -0.0283,-0.25409 -0.085,-0.3263 -0.0567,-0.0722 -0.14167,-0.10831 -0.25501,-0.10831 -0.13618,0 -0.24358,0.0434 -0.32218,0.13025 -0.0786,0.0868 -0.11791,0.20519 -0.11791,0.35509 l 0,0.86785 -0.25363,0 0,-1.53553 0.25363,0 0,0.23855 c 0.0603,-0.0923 0.13116,-0.16132 0.21251,-0.20702 0.0823,-0.0457 0.17686,-0.0685 0.2838,-0.0685 0.1764,0 0.30984,0.0548 0.40033,0.16452 0.0905,0.10877 0.13573,0.26918 0.13573,0.48123"
         style="font-size:2.80782008px"
         id="path5530" />
      <path
         d="m -360.8523,939.86395 c 0,-0.1828 -0.0379,-0.32447 -0.11379,-0.42501 -0.075,-0.10054 -0.18052,-0.15081 -0.3167,-0.15081 -0.13528,0 -0.24084,0.0503 -0.31671,0.15081 -0.075,0.10054 -0.11242,0.24221 -0.11242,0.42501 0,0.18189 0.0375,0.3231 0.11242,0.42364 0.0759,0.10054 0.18143,0.15081 0.31671,0.15081 0.13618,0 0.24175,-0.0503 0.3167,-0.15081 0.0759,-0.10054 0.11379,-0.24175 0.11379,-0.42364 m 0.25227,0.59502 c 0,0.2614 -0.058,0.45563 -0.17412,0.58267 -0.11608,0.12796 -0.29385,0.19194 -0.53332,0.19194 -0.0887,0 -0.17229,-0.007 -0.2509,-0.0206 -0.0786,-0.0128 -0.15492,-0.0329 -0.22895,-0.0603 l 0,-0.24541 c 0.074,0.0402 0.14715,0.0699 0.21936,0.0891 0.0722,0.0192 0.14578,0.0288 0.22073,0.0288 0.16543,0 0.28928,-0.0434 0.37154,-0.13024 0.0823,-0.0859 0.12339,-0.21617 0.12339,-0.39074 l 0,-0.12476 c -0.0521,0.0905 -0.11882,0.15812 -0.20017,0.20291 -0.0813,0.0448 -0.17868,0.0672 -0.29202,0.0672 -0.18828,0 -0.34001,-0.0717 -0.45517,-0.21525 -0.11517,-0.1435 -0.17275,-0.33361 -0.17275,-0.57034 0,-0.23764 0.0576,-0.42821 0.17275,-0.57171 0.11516,-0.1435 0.26689,-0.21525 0.45517,-0.21525 0.11334,0 0.21068,0.0224 0.29202,0.0672 0.0814,0.0448 0.14807,0.11243 0.20017,0.20291 l 0,-0.23307 0.25227,0 0,1.34496"
         style="font-size:2.80782008px"
         id="path5532" />
    </g>
    <path
       inkscape:connector-curvature="0"
       id="path5537"
       style="font-size:2.26816726px;font-style:normal;font-weight:normal;line-height:125%;letter-spacing:0px;word-spacing:0px;fill:#000000;fill-opacity:1;stroke:none;font-family:Sans"
       d="m 11.652187,1012.6653 c -0.05615,-0.139 -0.128867,-0.2362 -0.218161,-0.2917 -0.08894,-0.057 -0.183337,-0.065 -0.283278,-0.024 -0.09995,0.04 -0.162644,0.1119 -0.188056,0.2145 -0.02503,0.1017 -0.0094,0.222 0.04672,0.361 0.05615,0.139 0.128631,0.2367 0.217553,0.2932 0.08929,0.055 0.183941,0.063 0.283891,0.023 0.09994,-0.04 0.162442,-0.1113 0.187443,-0.2131 0.02542,-0.1026 0.01003,-0.2234 -0.04612,-0.3624 m -0.805036,-0.1418 c 0.01204,-0.084 0.04153,-0.1553 0.08852,-0.2125 0.04735,-0.058 0.113145,-0.1043 0.197352,-0.1383 0.139656,-0.056 0.275347,-0.047 0.407099,0.029 0.132426,0.076 0.235159,0.2036 0.308177,0.3844 0.07302,0.1807 0.08807,0.3442 0.0453,0.4905 -0.04216,0.146 -0.133023,0.2472 -0.272675,0.3037 -0.08419,0.034 -0.163399,0.047 -0.237623,0.039 -0.07383,-0.01 -0.144387,-0.04 -0.211743,-0.092 l 0.0697,0.1725 -0.189971,0.077 -0.645548,-1.5978 0.18997,-0.077 0.251414,0.6223" />
    <path
       inkscape:connector-curvature="0"
       id="path5539"
       style="font-size:2.26816726px;font-style:normal;font-weight:normal;line-height:125%;letter-spacing:0px;word-spacing:0px;fill:#000000;fill-opacity:1;stroke:none;font-family:Sans"
       d="m 11.928761,1011.8835 0.188941,-0.076 0.464663,1.1501 -0.188942,0.076 -0.464662,-1.1501 m -0.180886,-0.4477 0.188941,-0.076 0.09666,0.2393 -0.188942,0.076 -0.09666,-0.2392" />
    <path
       inkscape:connector-curvature="0"
       id="path5541"
       style="font-size:2.26816726px;font-style:normal;font-weight:normal;line-height:125%;letter-spacing:0px;word-spacing:0px;fill:#000000;fill-opacity:1;stroke:none;font-family:Sans"
       d="m 13.357505,1011.3576 0.07136,0.1766 c -0.06528,-0.01 -0.127889,-0.01 -0.187778,-6e-4 -0.05947,0.01 -0.116619,0.021 -0.171379,0.043 -0.122542,0.049 -0.201932,0.127 -0.238173,0.2324 -0.03654,0.1047 -0.02642,0.2273 0.03028,0.3676 0.0567,0.1404 0.134656,0.2359 0.234001,0.2865 0.09902,0.05 0.209807,0.05 0.332352,7e-4 0.0548,-0.022 0.105846,-0.051 0.153511,-0.087 0.04799,-0.037 0.09276,-0.081 0.134247,-0.1319 l 0.07053,0.1746 c -0.0427,0.046 -0.09006,0.087 -0.141896,0.1218 -0.05111,0.035 -0.108582,0.065 -0.172243,0.091 -0.173198,0.07 -0.33279,0.071 -0.478765,0 -0.145978,-0.068 -0.256309,-0.1939 -0.330987,-0.3787 -0.07579,-0.1876 -0.08402,-0.3559 -0.02478,-0.5049 0.05994,-0.1492 0.179598,-0.2601 0.358958,-0.3325 0.05814,-0.023 0.117621,-0.04 0.177908,-0.05 0.06017,-0.011 0.121098,-0.015 0.182796,-0.012" />
    <path
       inkscape:connector-curvature="0"
       id="path5543"
       style="font-size:2.26816726px;font-style:normal;font-weight:normal;line-height:125%;letter-spacing:0px;word-spacing:0px;fill:#000000;fill-opacity:1;stroke:none;font-family:Sans"
       d="m 14.656638,1012.2434 c 0.0019,0.1585 -0.01401,0.2688 -0.0478,0.3311 -0.03377,0.062 -0.0931,0.1105 -0.177989,0.1448 l -0.150955,0.061 -0.06389,-0.1582 0.110901,-0.045 c 0.05202,-0.021 0.08746,-0.05 0.106227,-0.086 0.01878,-0.036 0.02709,-0.1073 0.02497,-0.2132 l -9.96e-4,-0.1 -0.922364,-0.9436 0.200244,-0.081 0.722827,0.7543 -0.004,-1.0448 0.200235,-0.081 0.0026,1.461" />
    <path
       inkscape:connector-curvature="0"
       id="path5545"
       style="font-size:2.26816726px;font-style:normal;font-weight:normal;line-height:125%;letter-spacing:0px;word-spacing:0px;fill:#000000;fill-opacity:1;stroke:none;font-family:Sans"
       d="m 15.760357,1010.3868 0.07136,0.1766 c -0.06528,-0.01 -0.127889,-0.01 -0.187778,-6e-4 -0.05948,0.01 -0.11662,0.021 -0.171389,0.043 -0.122532,0.05 -0.201922,0.127 -0.238163,0.2324 -0.03654,0.1047 -0.02643,0.2273 0.03028,0.3676 0.05669,0.1404 0.134657,0.2359 0.234001,0.2865 0.09902,0.05 0.209807,0.05 0.332344,7e-4 0.0548,-0.022 0.105854,-0.051 0.153519,-0.087 0.04799,-0.037 0.09276,-0.081 0.134247,-0.1319 l 0.07053,0.1745 c -0.04279,0.046 -0.09006,0.087 -0.141895,0.1219 -0.0512,0.035 -0.108583,0.065 -0.172252,0.091 -0.173198,0.07 -0.332782,0.071 -0.478756,0 -0.145979,-0.068 -0.256309,-0.1938 -0.330987,-0.3787 -0.07579,-0.1875 -0.08403,-0.3558 -0.02479,-0.5048 0.05995,-0.1492 0.179606,-0.2601 0.358957,-0.3325 0.05823,-0.024 0.11763,-0.04 0.177918,-0.051 0.06016,-0.011 0.121097,-0.015 0.182796,-0.012" />
    <path
       inkscape:connector-curvature="0"
       id="path5547"
       style="font-size:2.26816726px;font-style:normal;font-weight:normal;line-height:125%;letter-spacing:0px;word-spacing:0px;fill:#000000;fill-opacity:1;stroke:none;font-family:Sans"
       d="m 15.892275,1009.7613 0.188942,-0.076 0.645548,1.5978 -0.188941,0.076 -0.645549,-1.5978" />
    <path
       inkscape:connector-curvature="0"
       id="path5549"
       style="font-size:2.26816726px;font-style:normal;font-weight:normal;line-height:125%;letter-spacing:0px;word-spacing:0px;fill:#000000;fill-opacity:1;stroke:none;font-family:Sans"
       d="m 17.853393,1010.1037 0.03735,0.092 -0.868716,0.3509 c 0.06089,0.1267 0.139849,0.2103 0.237369,0.2505 0.09794,0.039 0.20948,0.034 0.334762,-0.017 0.0726,-0.029 0.138984,-0.067 0.199719,-0.1117 0.06123,-0.046 0.11824,-0.1 0.170947,-0.1623 l 0.07219,0.1787 c -0.05616,0.056 -0.116807,0.1061 -0.18189,0.15 -0.0651,0.044 -0.134276,0.081 -0.207533,0.1101 -0.183462,0.074 -0.350514,0.08 -0.501128,0.016 -0.14994,-0.064 -0.261696,-0.1866 -0.335269,-0.3687 -0.07606,-0.1882 -0.08573,-0.3579 -0.02891,-0.5091 0.05719,-0.1521 0.172043,-0.263 0.344551,-0.3327 0.154723,-0.063 0.297104,-0.062 0.427164,0 0.130506,0.063 0.230275,0.1797 0.29942,0.3509 m -0.211343,0.021 c -0.04269,-0.103 -0.105598,-0.1736 -0.187234,-0.2123 -0.08106,-0.039 -0.168109,-0.04 -0.261208,-0 -0.105417,0.043 -0.177945,0.1066 -0.217519,0.1919 -0.03891,0.085 -0.04132,0.1835 -0.0072,0.2956 l 0.673243,-0.2731" />
    <path
       inkscape:connector-curvature="0"
       id="path5551"
       style="font-size:2.26816726px;font-style:normal;font-weight:normal;line-height:125%;letter-spacing:0px;word-spacing:0px;fill:#000000;fill-opacity:1;stroke:none;font-family:Sans"
       d="m 18.697132,1009.1883 0.07219,0.1787 c -0.06446,-0.01 -0.128218,-0 -0.191266,0.01 -0.06303,0.01 -0.125374,0.027 -0.186985,0.052 -0.09379,0.038 -0.158491,0.081 -0.194118,0.1286 -0.03493,0.048 -0.04078,0.1001 -0.01754,0.1576 0.01772,0.044 0.04844,0.072 0.09225,0.083 0.04353,0.011 0.120488,0.01 0.230913,-0.011 l 0.07052,-0.012 c 0.145786,-0.025 0.257388,-0.023 0.334831,0.01 0.07785,0.029 0.135686,0.09 0.173578,0.1843 0.04315,0.1067 0.03484,0.2085 -0.02485,0.305 -0.05901,0.096 -0.162491,0.1744 -0.310358,0.2341 -0.06166,0.025 -0.128581,0.044 -0.200504,0.06 -0.07111,0.015 -0.148449,0.026 -0.232085,0.032 l -0.07882,-0.1951 c 0.08446,0.01 0.164368,0.01 0.239591,-0 0.07497,-0.01 0.145647,-0.028 0.212052,-0.055 0.08901,-0.036 0.151386,-0.079 0.187128,-0.1282 0.0355,-0.05 0.042,-0.1029 0.01958,-0.1584 -0.02075,-0.051 -0.05407,-0.084 -0.100099,-0.097 -0.04526,-0.013 -0.131608,-0.01 -0.258892,0.013 l -0.07196,0.011 c -0.127031,0.023 -0.22678,0.019 -0.299265,-0.01 -0.07277,-0.03 -0.127165,-0.09 -0.16312,-0.179 -0.0437,-0.1081 -0.03906,-0.2072 0.01379,-0.297 0.05289,-0.09 0.149849,-0.1632 0.290873,-0.2202 0.06982,-0.028 0.137793,-0.049 0.203375,-0.064 0.06572,-0.014 0.128806,-0.022 0.189118,-0.023" />
    <g
       transform="matrix(0.92718386,-0.37460659,0.37460659,0.92718386,0,0)"
       style="font-size:2.26816726px;font-style:normal;font-weight:normal;line-height:125%;letter-spacing:0px;word-spacing:0px;fill:#000000;fill-opacity:1;stroke:none;font-family:Sans"
       id="text5417">
      <path
         d="m -370.39987,945.96254 c -0.16465,0 -0.27872,0.0188 -0.34222,0.0565 -0.0635,0.0377 -0.0952,0.10189 -0.0952,0.1927 0,0.0724 0.0236,0.12995 0.0709,0.17277 0.048,0.0421 0.11296,0.0631 0.19492,0.0631 0.11296,0 0.20341,-0.0399 0.27134,-0.11961 0.0687,-0.0805 0.10299,-0.18717 0.10299,-0.32007 l 0,-0.0454 -0.20267,0 m 0.40645,-0.0842 0,0.7077 -0.20378,0 0,-0.18828 c -0.0465,0.0753 -0.10447,0.13106 -0.17388,0.16724 -0.0694,0.0354 -0.15431,0.0532 -0.25472,0.0532 -0.127,0 -0.22815,-0.0354 -0.30346,-0.10632 -0.0746,-0.0716 -0.11185,-0.16724 -0.11185,-0.28685 0,-0.13954 0.0465,-0.24475 0.13954,-0.31564 0.0938,-0.0709 0.23331,-0.10631 0.41864,-0.10632 l 0.28573,0 0,-0.0199 c 0,-0.0938 -0.031,-0.16613 -0.093,-0.21707 -0.0613,-0.0517 -0.14767,-0.0775 -0.25915,-0.0775 -0.0709,0 -0.13992,0.009 -0.20711,0.0255 -0.0672,0.017 -0.13179,0.0425 -0.19381,0.0764 l 0,-0.18827 c 0.0746,-0.0288 0.14693,-0.0502 0.21707,-0.0642 0.0701,-0.0148 0.13844,-0.0222 0.20489,-0.0222 0.17941,0 0.31342,0.0465 0.40202,0.13955 0.0886,0.093 0.1329,0.23405 0.1329,0.42306"
         style=""
         id="path5554" />
      <path
         d="m -369.71876,945.34566 0.21597,0 0.38762,1.04105 0.38763,-1.04105 0.21596,0 -0.46515,1.2404 -0.27687,0 -0.46516,-1.2404"
         style=""
         id="path5556" />
      <path
         d="m -367.66655,945.96254 c -0.16465,0 -0.27872,0.0188 -0.34222,0.0565 -0.0635,0.0377 -0.0952,0.10189 -0.0952,0.1927 0,0.0724 0.0236,0.12995 0.0709,0.17277 0.048,0.0421 0.11297,0.0631 0.19493,0.0631 0.11296,0 0.20341,-0.0399 0.27133,-0.11961 0.0687,-0.0805 0.103,-0.18717 0.103,-0.32007 l 0,-0.0454 -0.20267,0 m 0.40645,-0.0842 0,0.7077 -0.20378,0 0,-0.18828 c -0.0465,0.0753 -0.10447,0.13106 -0.17388,0.16724 -0.0694,0.0354 -0.15431,0.0532 -0.25472,0.0532 -0.127,0 -0.22815,-0.0354 -0.30346,-0.10632 -0.0746,-0.0716 -0.11186,-0.16724 -0.11186,-0.28685 0,-0.13954 0.0465,-0.24475 0.13955,-0.31564 0.0938,-0.0709 0.23331,-0.10631 0.41864,-0.10632 l 0.28573,0 0,-0.0199 c 0,-0.0938 -0.031,-0.16613 -0.093,-0.21707 -0.0613,-0.0517 -0.14767,-0.0775 -0.25915,-0.0775 -0.0709,0 -0.13992,0.009 -0.20711,0.0255 -0.0672,0.017 -0.13179,0.0425 -0.19381,0.0764 l 0,-0.18827 c 0.0746,-0.0288 0.14693,-0.0502 0.21707,-0.0642 0.0701,-0.0148 0.13844,-0.0222 0.20489,-0.0222 0.17941,0 0.31342,0.0465 0.40202,0.13955 0.0886,0.093 0.1329,0.23405 0.1329,0.42306"
         style=""
         id="path5558" />
      <path
         d="m -366.83925,945.34566 0.20378,0 0,1.2404 -0.20378,0 0,-1.2404 m 0,-0.48288 0.20378,0 0,0.25805 -0.20378,0 0,-0.25805"
         style=""
         id="path5560" />
      <path
         d="m -366.21018,944.86278 0.20378,0 0,1.72328 -0.20378,0 0,-1.72328"
         style=""
         id="path5562" />
      <path
         d="m -365.0174,945.96254 c -0.16465,0 -0.27873,0.0188 -0.34222,0.0565 -0.0635,0.0377 -0.0953,0.10189 -0.0953,0.1927 0,0.0724 0.0236,0.12995 0.0709,0.17277 0.048,0.0421 0.11297,0.0631 0.19492,0.0631 0.11297,0 0.20341,-0.0399 0.27134,-0.11961 0.0687,-0.0805 0.103,-0.18717 0.103,-0.32007 l 0,-0.0454 -0.20267,0 m 0.40645,-0.0842 0,0.7077 -0.20378,0 0,-0.18828 c -0.0465,0.0753 -0.10448,0.13106 -0.17388,0.16724 -0.0694,0.0354 -0.15431,0.0532 -0.25472,0.0532 -0.127,0 -0.22815,-0.0354 -0.30346,-0.10632 -0.0746,-0.0716 -0.11186,-0.16724 -0.11186,-0.28685 0,-0.13954 0.0465,-0.24475 0.13955,-0.31564 0.0938,-0.0709 0.23331,-0.10631 0.41863,-0.10632 l 0.28574,0 0,-0.0199 c 0,-0.0938 -0.031,-0.16613 -0.093,-0.21707 -0.0613,-0.0517 -0.14767,-0.0775 -0.25916,-0.0775 -0.0709,0 -0.13991,0.009 -0.2071,0.0255 -0.0672,0.017 -0.13179,0.0425 -0.19381,0.0764 l 0,-0.18827 c 0.0746,-0.0288 0.14693,-0.0502 0.21707,-0.0642 0.0701,-0.0148 0.13844,-0.0222 0.20489,-0.0222 0.17941,0 0.31342,0.0465 0.40202,0.13955 0.0886,0.093 0.1329,0.23405 0.1329,0.42306"
         style=""
         id="path5564" />
      <path
         d="m -363.29966,945.96697 c -10e-6,-0.14989 -0.031,-0.26728 -0.093,-0.35219 -0.0613,-0.0856 -0.14582,-0.12847 -0.25361,-0.12847 -0.1078,0 -0.19271,0.0428 -0.25473,0.12847 -0.0613,0.0849 -0.0919,0.2023 -0.0919,0.35219 0,0.14988 0.0306,0.26764 0.0919,0.35329 0.062,0.0849 0.14693,0.12736 0.25473,0.12736 0.10779,0 0.19233,-0.0425 0.25361,-0.12736 0.062,-0.0856 0.093,-0.20341 0.093,-0.35329 m -0.6933,-0.43304 c 0.0428,-0.0738 0.0967,-0.12847 0.16169,-0.16391 0.0657,-0.0362 0.14398,-0.0543 0.23479,-0.0543 0.15062,0 0.27282,0.0598 0.36659,0.17942 0.0945,0.11961 0.14176,0.27688 0.14176,0.4718 0,0.19492 -0.0473,0.35218 -0.14176,0.47179 -0.0938,0.11961 -0.21597,0.17942 -0.36659,0.17942 -0.0908,0 -0.16908,-0.0177 -0.23479,-0.0532 -0.065,-0.0362 -0.11887,-0.0912 -0.16169,-0.16502 l 0,0.18606 -0.20489,0 0,-1.72328 0.20489,0 0,0.67115"
         style=""
         id="path5566" />
      <path
         d="m -362.75034,944.86278 0.20378,0 0,1.72328 -0.20378,0 0,-1.72328"
         style=""
         id="path5568" />
      <path
         d="m -361.06029,945.91491 0,0.0997 -0.93695,0 c 0.009,0.14028 0.0509,0.24734 0.12625,0.32117 0.0761,0.0731 0.18163,0.10965 0.31675,0.10965 0.0783,0 0.15394,-0.01 0.22704,-0.0288 0.0738,-0.0192 0.14693,-0.048 0.21928,-0.0864 l 0,0.1927 c -0.0731,0.031 -0.14803,0.0546 -0.22482,0.0709 -0.0768,0.0163 -0.15468,0.0244 -0.23368,0.0244 -0.19788,0 -0.35477,-0.0576 -0.47069,-0.17277 -0.11518,-0.11518 -0.17277,-0.27097 -0.17277,-0.46737 0,-0.20304 0.0546,-0.364 0.16391,-0.48287 0.11001,-0.11961 0.25805,-0.17942 0.44411,-0.17942 0.16686,0 0.29865,0.0539 0.39538,0.1617 0.0975,0.10706 0.14619,0.25288 0.14619,0.43746 m -0.20378,-0.0598 c -0.001,-0.11149 -0.0329,-0.20046 -0.0941,-0.26691 -0.0606,-0.0665 -0.14102,-0.0997 -0.24144,-0.0997 -0.1137,0 -0.20489,0.0321 -0.27355,0.0964 -0.0679,0.0642 -0.10706,0.15468 -0.1174,0.27133 l 0.72653,-0.001"
         style=""
         id="path5570" />
    </g>
    <path
       style="fill:none;stroke:#000000;stroke-width:1;stroke-linecap:butt;stroke-linejoin:miter;stroke-miterlimit:4;stroke-opacity:1;stroke-dasharray:1, 1;stroke-dashoffset:0"
       d="m 19.30974,45.772367 c -0.24259,3.225967 1.441226,3.987486 -3.091175,5.929564 L 10.106759,51.141085 C 6.8111732,50.603495 1.4491507,49.572795 -0.6110708,46.873318"
       id="path3075"
       inkscape:connector-curvature="0"
       transform="translate(0,992.36218)"
       sodipodi:nodetypes="cccc" />
    <g
       id="g4993"
       transform="translate(-10.804194,4.6905033)">
      <path
         d="m 108.40197,1028.0045 3.0345,0.5343 8.22515,-1.458 -2.9987,-0.4056 z"
         style="fill:#787878;fill-opacity:1;fill-rule:evenodd;stroke:#000000;stroke-width:0.93951344;stroke-linecap:round;stroke-linejoin:round;stroke-miterlimit:4;stroke-opacity:1;stroke-dasharray:none;stroke-dashoffset:0"
         id="path4975"
         inkscape:connector-curvature="0" />
      <path
         d="m 108.40197,1007.9585 0,20.046 8.26095,-1.3293 0,-17.5197 z"
         style="fill:#787878;fill-opacity:1;fill-rule:evenodd;stroke:#000000;stroke-width:0.93951344;stroke-linecap:round;stroke-linejoin:round;stroke-miterlimit:4;stroke-opacity:1;stroke-dasharray:none;stroke-dashoffset:0"
         id="path4977"
         inkscape:connector-curvature="0" />
      <path
         d="m 116.66292,1009.1555 2.9987,-0.3652 0,18.2905 -2.9987,-0.4056 z"
         style="fill:#787878;fill-opacity:1;fill-rule:evenodd;stroke:#000000;stroke-width:0.93951344;stroke-linecap:round;stroke-linejoin:round;stroke-miterlimit:4;stroke-opacity:1;stroke-dasharray:none;stroke-dashoffset:0"
         id="path4979"
         inkscape:connector-curvature="0" />
      <path
         d="m 108.40197,1007.9585 3.0345,-0.4812 8.22515,1.313 -2.9987,0.3652 z"
         style="fill:#787878;fill-opacity:1;fill-rule:evenodd;stroke:#000000;stroke-width:0.93951344;stroke-linecap:round;stroke-linejoin:round;stroke-miterlimit:4;stroke-opacity:1;stroke-dasharray:none;stroke-dashoffset:0"
         id="path4981"
         inkscape:connector-curvature="0" />
      <path
         d="m 111.43647,1007.4773 0,21.0615 8.22515,-1.458 0,-18.2905 z"
         style="fill:#787878;fill-opacity:1;fill-rule:evenodd;stroke:#000000;stroke-width:0.93951344;stroke-linecap:round;stroke-linejoin:round;stroke-miterlimit:4;stroke-opacity:1;stroke-dasharray:none;stroke-dashoffset:0"
         id="path4983"
         inkscape:connector-curvature="0" />
      <path
         d="m 108.40197,1007.9585 3.0345,-0.4812 0,21.0615 -3.0345,-0.5343 z"
         style="fill:#787878;fill-opacity:1;fill-rule:evenodd;stroke:#000000;stroke-width:0.93951344;stroke-linecap:round;stroke-linejoin:round;stroke-miterlimit:4;stroke-opacity:1;stroke-dasharray:none;stroke-dashoffset:0"
         id="path4985"
         inkscape:connector-curvature="0" />
      <path
         id="path3885-8"
         d="m 111.01252,1009.6243 c -0.68846,-0.3032 -1.45506,-0.3434 -2.26305,-0.071 -2.98654,1.0063 -5.4076,5.901 -5.4076,10.9326 l 0,0 c 0,5.0316 2.42106,8.2947 5.4076,7.2884 0.8114,-0.2734 1.58106,-0.8338 2.27176,-1.606"
         style="fill:none;stroke:#000000;stroke-width:1.37199998;stroke-linecap:round;stroke-miterlimit:4;stroke-opacity:1;stroke-dasharray:none"
         inkscape:connector-curvature="0" />
      <path
         transform="matrix(-0.05945085,0.02003208,0,0.12923923,119.53379,963.65215)"
         d="m 191.42391,395.5105 c 0,4.32366 -4.5226,7.82868 -10.10152,7.82868 -5.57892,0 -10.10153,-3.50502 -10.10153,-7.82868 0,-4.32366 4.52261,-7.82868 10.10153,-7.82868 5.57892,0 10.10152,3.50502 10.10152,7.82868 z"
         sodipodi:ry="7.8286824"
         sodipodi:rx="10.101525"
         sodipodi:cy="395.5105"
         sodipodi:cx="181.32239"
         id="path3767-3-3-1"
         style="fill:#000000;fill-opacity:1;stroke:#000000;stroke-width:1;stroke-miterlimit:4;stroke-opacity:1;stroke-dasharray:none"
         sodipodi:type="arc" />
      <path
         sodipodi:nodetypes="cc"
         inkscape:connector-curvature="0"
         id="path3769-1-6-4"
         d="m 108.74812,1018.4819 c -3.09512,-2.4151 -3.21972,-8.0729 -4.78236,-15.0854"
         style="fill:none;stroke:#000000;stroke-width:1.37220609;stroke-linecap:butt;stroke-linejoin:round;stroke-miterlimit:4;stroke-opacity:1;stroke-dasharray:none" />
      <path
         transform="matrix(-0.10100474,0.03403375,0,0.17261136,108.508,945.1578)"
         d="m 240.41631,426.82523 c 0,29.14985 -23.96982,52.78047 -53.53809,52.78047 -29.56827,0 -53.53809,-23.63062 -53.53809,-52.78047 0,-29.14985 23.96982,-52.78048 53.53809,-52.78048 29.56827,0 53.53809,23.63063 53.53809,52.78048 z"
         sodipodi:ry="52.780472"
         sodipodi:rx="53.538086"
         sodipodi:cy="426.82523"
         sodipodi:cx="186.87822"
         id="path2997-5-4-3-8"
         style="fill:none;stroke:#000000;stroke-width:10.39235115;stroke-miterlimit:4;stroke-opacity:1;stroke-dasharray:none"
         sodipodi:type="arc" />
      <path
         transform="matrix(-0.05945085,0.02003208,0,0.12923923,100.3054,970.21121)"
         d="m 191.42391,395.5105 c 0,4.32366 -4.5226,7.82868 -10.10152,7.82868 -5.57892,0 -10.10153,-3.50502 -10.10153,-7.82868 0,-4.32366 4.52261,-7.82868 10.10153,-7.82868 5.57892,0 10.10152,3.50502 10.10152,7.82868 z"
         sodipodi:ry="7.8286824"
         sodipodi:rx="10.101525"
         sodipodi:cy="395.5105"
         sodipodi:cx="181.32239"
         id="path3767-9-4-4-0"
         style="fill:#000000;fill-opacity:1;stroke:#000000;stroke-width:1;stroke-miterlimit:4;stroke-opacity:1;stroke-dasharray:none"
         sodipodi:type="arc" />
      <path
         sodipodi:nodetypes="cc"
         inkscape:connector-curvature="0"
         id="path3807-8-8-6"
         d="m 89.418835,1025.2648 c 0.480563,-1.3314 5.820145,-14.6453 5.820145,-14.6453"
         style="fill:none;stroke:#000000;stroke-width:1.37220609;stroke-linecap:butt;stroke-linejoin:miter;stroke-miterlimit:4;stroke-opacity:1;stroke-dasharray:none" />
      <path
         sodipodi:nodetypes="cc"
         inkscape:connector-curvature="0"
         id="path3809-8-0-5"
         d="m 94.972001,1010.8893 9.824829,-3.4904"
         style="fill:none;stroke:#000000;stroke-width:1.37220609;stroke-linecap:butt;stroke-linejoin:miter;stroke-miterlimit:4;stroke-opacity:1;stroke-dasharray:none" />
      <path
         sodipodi:nodetypes="cc"
         inkscape:connector-curvature="0"
         id="path3811-4-0-4"
         d="m 98.175749,1025.1029 c -0.320374,-1.1515 -3.470727,-17.0922 -3.470727,-17.0922"
         style="fill:none;stroke:#000000;stroke-width:1.37220609;stroke-linecap:butt;stroke-linejoin:miter;stroke-miterlimit:4;stroke-opacity:1;stroke-dasharray:none" />
      <path
         transform="matrix(-0.09908474,0.03338681,0,0.21539872,115.98614,933.2867)"
         d="m 191.42391,395.5105 c 0,4.32366 -4.5226,7.82868 -10.10152,7.82868 -5.57892,0 -10.10153,-3.50502 -10.10153,-7.82868 0,-4.32366 4.52261,-7.82868 10.10153,-7.82868 5.57892,0 10.10152,3.50502 10.10152,7.82868 z"
         sodipodi:ry="7.8286824"
         sodipodi:rx="10.101525"
         sodipodi:cy="395.5105"
         sodipodi:cx="181.32239"
         id="path3767-9-3-0-1-6"
         style="fill:#000000;fill-opacity:1;stroke:#000000;stroke-width:1;stroke-miterlimit:4;stroke-opacity:1;stroke-dasharray:none"
         sodipodi:type="arc" />
      <path
         sodipodi:nodetypes="cc"
         inkscape:connector-curvature="0"
         id="path3831-7-7-9"
         d="m 98.229146,1024.7251 -8.756915,0.2519"
         style="fill:none;stroke:#000000;stroke-width:1.37220609;stroke-linecap:butt;stroke-linejoin:miter;stroke-miterlimit:4;stroke-opacity:1;stroke-dasharray:none" />
      <path
         sodipodi:nodetypes="cc"
         inkscape:connector-curvature="0"
         id="path3833-6-1-5"
         d="m 104.90362,1009.2521 -6.674474,15.2031"
         style="fill:none;stroke:#000000;stroke-width:1.37220609;stroke-linecap:butt;stroke-linejoin:miter;stroke-miterlimit:4;stroke-opacity:1;stroke-dasharray:none" />
      <path
         sodipodi:nodetypes="cccc"
         inkscape:connector-curvature="0"
         id="path3835-6-3-8"
         d="m 103.79561,1004.0332 0.62745,-2.2657 -0.96109,-1.1155 -1.97353,0.665"
         style="fill:none;stroke:#000000;stroke-width:0.96054429;stroke-linecap:butt;stroke-linejoin:miter;stroke-miterlimit:4;stroke-opacity:1;stroke-dasharray:none" />
      <path
         sodipodi:nodetypes="ccc"
         inkscape:connector-curvature="0"
         id="path3837-4-0-5"
         d="m 97.962167,1006.1935 -5.76675,1.6732 c -0.89686,3.7311 7.19641,-1.1608 5.76675,-1.6732 z"
         style="fill:#000000;fill-opacity:1;stroke:#000000;stroke-width:0.13722061px;stroke-linecap:round;stroke-linejoin:round;stroke-opacity:1" />
      <g
         transform="matrix(-0.10571834,0.03562201,0,0.17811003,134.48491,920.69892)"
         id="g3873-2-2-5"
         style="stroke:#000000;stroke-opacity:1">
        <path
           style="fill:none;stroke:#000000;stroke-width:5;stroke-linecap:butt;stroke-linejoin:miter;stroke-miterlimit:4;stroke-opacity:1;stroke-dasharray:none"
           d="m 345.85995,520.04769 4.54569,21.71827"
           id="path3839-6-9-6"
           inkscape:connector-curvature="0"
           sodipodi:nodetypes="cc" />
        <path
           style="fill:none;stroke:#000000;stroke-width:5;stroke-linecap:butt;stroke-linejoin:miter;stroke-miterlimit:4;stroke-opacity:1;stroke-dasharray:none"
           d="m 343.45467,540.63325 13.3508,-0.3265"
           id="path3841-6-6-8"
           inkscape:connector-curvature="0"
           sodipodi:nodetypes="cc" />
      </g>
      <g
         id="g3873-0-2-2-9"
         style="stroke:#000000;stroke-opacity:1;display:inline"
         transform="matrix(0.10571834,-0.03562201,0,-0.17811003,61.714289,1128.6186)">
        <path
           style="fill:none;stroke:#000000;stroke-width:5;stroke-linecap:butt;stroke-linejoin:miter;stroke-miterlimit:4;stroke-opacity:1;stroke-dasharray:none"
           d="m 345.85995,520.04769 4.54569,21.71827"
           id="path3839-2-3-0-6"
           inkscape:connector-curvature="0"
           sodipodi:nodetypes="cc" />
        <path
           style="fill:none;stroke:#000000;stroke-width:5;stroke-linecap:butt;stroke-linejoin:miter;stroke-miterlimit:4;stroke-opacity:1;stroke-dasharray:none"
           d="m 343.45467,540.63325 13.3508,-0.3265"
           id="path3841-9-5-2-5"
           inkscape:connector-curvature="0"
           sodipodi:nodetypes="cc" />
      </g>
    </g>
    <path
       style="fill:none;stroke:#000000;stroke-width:1;stroke-linecap:butt;stroke-linejoin:miter;stroke-miterlimit:4;stroke-opacity:1;stroke-dasharray:none;stroke-dashoffset:0"
       d="m 64.351404,1032.7804 c 1.525177,3.2259 -13.584793,11.0585 -19.177854,10.5257 l -13.536428,-4.6266 c -3.295586,-2.3054 -6.666492,0.8208 -8.726713,-1.8787"
       id="path3075-3"
       inkscape:connector-curvature="0"
       sodipodi:nodetypes="cccc" />
    <path
       style="fill:none;stroke:#000000;stroke-width:1;stroke-linecap:butt;stroke-linejoin:miter;stroke-miterlimit:4;stroke-opacity:1;stroke-dasharray:none;stroke-dashoffset:0"
       d="m 103.24473,1032.9442 c -2.01438,7.3554 -9.398517,12.1928 -26.516688,9.9792 l -13.523865,0.991 c -7.93486,-0.4973 -9.027415,1.2206 -15.41313,1.3714 -20.691589,0.4887 -25.975898,-6.5304 -26.865621,-7.6962"
       id="path3075-3-5"
       inkscape:connector-curvature="0"
       sodipodi:nodetypes="cccsc" />
    <g
       transform="matrix(0.92718386,-0.37460659,0.37460659,0.92718386,0,0)"
       style="font-size:2.47450185px;font-style:normal;font-weight:normal;line-height:125%;letter-spacing:0px;word-spacing:0px;fill:#000000;fill-opacity:1;stroke:none;font-family:Sans"
       id="text3084">
      <path
         d="m -371.12059,943.6851 0.85182,0 0,0.2054 -1.14542,0 0,-0.2054 c 0.0926,-0.0959 0.21869,-0.22433 0.37818,-0.38543 0.1603,-0.16191 0.26098,-0.26622 0.30207,-0.31294 0.0781,-0.0878 0.1325,-0.16191 0.16311,-0.22232 0.0314,-0.0612 0.0471,-0.12123 0.0471,-0.18003 0,-0.0959 -0.0338,-0.17399 -0.10149,-0.2344 -0.0669,-0.0604 -0.15426,-0.0906 -0.26219,-0.0906 -0.0765,0 -0.15748,0.0133 -0.24286,0.0399 -0.0846,0.0266 -0.1752,0.0669 -0.27186,0.12083 l 0,-0.24648 c 0.0983,-0.0395 0.1901,-0.0693 0.27548,-0.0894 0.0854,-0.0201 0.16352,-0.0302 0.2344,-0.0302 0.18688,0 0.3359,0.0467 0.44706,0.14016 0.11116,0.0934 0.16674,0.21829 0.16674,0.37455 0,0.0741 -0.0141,0.14459 -0.0423,0.21145 -0.0274,0.0661 -0.0777,0.14418 -0.15103,0.2344 -0.0201,0.0234 -0.0842,0.091 -0.19212,0.20299 -0.10793,0.11116 -0.26017,0.26702 -0.45672,0.46759"
         style=""
         id="path3089" />
    </g>
    <g
       style="font-size:6px;font-style:normal;font-weight:normal;line-height:125%;letter-spacing:0px;word-spacing:0px;fill:#000000;fill-opacity:1;stroke:none;font-family:Sans"
       id="text3843">
      <path
         d="m 3.5430443,1044.3588 0,0.5771 c -0.2246124,-0.1074 -0.4365262,-0.1875 -0.6357422,-0.2402 -0.1992211,-0.053 -0.3916038,-0.079 -0.5771485,-0.079 -0.3222673,0 -0.5712904,0.063 -0.7470703,0.1875 -0.1738292,0.125 -0.2607431,0.3027 -0.2607422,0.5332 -9e-7,0.1933 0.057616,0.3398 0.1728516,0.4394 0.1171862,0.098 0.3378891,0.1768 0.6621094,0.2373 l 0.3574219,0.073 c 0.4414036,0.084 0.7665986,0.2324 0.9755859,0.4453 0.2109341,0.2109 0.3164028,0.4941 0.3164062,0.8496 -3.4e-6,0.4238 -0.1425814,0.7451 -0.4277343,0.9639 -0.2832059,0.2187 -0.6992211,0.3281 -1.2480469,0.3281 -0.2070328,0 -0.4277358,-0.023 -0.6621094,-0.07 -0.2324228,-0.047 -0.47363346,-0.1162 -0.72363279,-0.208 l 0,-0.6094 c 0.24023372,0.1348 0.47558509,0.2363 0.70605469,0.3047 0.2304674,0.068 0.4570297,0.1025 0.6796875,0.1025 0.3378885,0 0.5986304,-0.066 0.7822266,-0.1992 0.1835909,-0.1328 0.2753877,-0.3223 0.2753906,-0.5684 -2.9e-6,-0.2148 -0.066409,-0.3828 -0.1992188,-0.5039 -0.1308619,-0.1211 -0.346682,-0.2119 -0.6474609,-0.2724 l -0.3603516,-0.07 c -0.4414074,-0.088 -0.760743,-0.2256 -0.9580078,-0.4131 -0.1972661,-0.1875 -0.29589881,-0.4483 -0.29589842,-0.7822 -3.9e-7,-0.3868 0.13574166,-0.6914 0.40722652,-0.9141 0.2734365,-0.2227 0.6494127,-0.334 1.1279297,-0.334 0.205076,0 0.4140602,0.019 0.6269532,0.056 0.2128878,0.037 0.430661,0.093 0.6533203,0.167"
         style=""
         id="path3848" />
      <path
         d="m 7.5127708,1046.8138 0,0.2637 -2.4785156,0 c 0.023437,0.3711 0.1347646,0.6543 0.3339844,0.8496 0.2011704,0.1934 0.480467,0.2901 0.8378906,0.2901 0.207029,0 0.4072241,-0.025 0.6005859,-0.076 0.1953097,-0.051 0.3886689,-0.127 0.5800782,-0.2285 l 0,0.5097 c -0.1933625,0.082 -0.3916044,0.1446 -0.5947266,0.1875 -0.2031274,0.043 -0.4091819,0.064 -0.6181641,0.064 -0.523439,0 -0.9384776,-0.1523 -1.2451171,-0.457 -0.304688,-0.3047 -0.4570316,-0.7168 -0.4570313,-1.2364 -3e-7,-0.5371 0.1445308,-0.9629 0.4335938,-1.2773 0.2910145,-0.3164 0.6826157,-0.4746 1.1748046,-0.4746 0.4414039,0 0.7900364,0.1426 1.0458985,0.4277 0.2578092,0.2832 0.3867154,0.669 0.3867187,1.1572 m -0.5390625,-0.1582 c -0.00391,-0.2949 -0.086917,-0.5302 -0.2490234,-0.706 -0.1601587,-0.1758 -0.3730491,-0.2637 -0.6386719,-0.2637 -0.3007829,0 -0.5419936,0.085 -0.7236328,0.2549 -0.1796885,0.1699 -0.2832041,0.4092 -0.3105469,0.7178 l 1.921875,-0"
         style=""
         id="path3850" />
      <path
         d="m 10.298904,1045.8119 c -0.06055,-0.035 -0.126956,-0.061 -0.199219,-0.076 -0.07031,-0.018 -0.1484397,-0.026 -0.2343751,-0.026 -0.3046892,0 -0.539064,0.1 -0.703125,0.2988 -0.1621105,0.1972 -0.2431652,0.4814 -0.2431641,0.8525 l 0,1.7285 -0.5419922,0 0,-3.2812 0.5419922,0 0,0.5097 c 0.1132801,-0.1992 0.2607409,-0.3466 0.4423828,-0.4423 0.181639,-0.098 0.4023419,-0.1465 0.6621094,-0.1465 0.03711,0 0.07812,0 0.123047,0.01 0.04492,0 0.09472,0.011 0.149414,0.021 l 0.0029,0.5537"
         style=""
         id="path3852" />
      <path
         d="m 10.483474,1045.308 0.571289,0 1.025391,2.7539 1.02539,-2.7539 0.571289,0 -1.230468,3.2812 -0.732422,0 -1.230469,-3.2812"
         style=""
         id="path3854" />
      <path
         d="m 17.227615,1046.8138 0,0.2637 -2.478516,0 c 0.02344,0.3711 0.134765,0.6543 0.333984,0.8496 0.201171,0.1934 0.480467,0.2901 0.837891,0.2901 0.207029,0 0.407224,-0.025 0.600586,-0.076 0.19531,-0.051 0.388669,-0.127 0.580078,-0.2285 l 0,0.5097 c -0.193362,0.082 -0.391604,0.1446 -0.594727,0.1875 -0.203127,0.043 -0.409181,0.064 -0.618164,0.064 -0.523439,0 -0.938477,-0.1523 -1.245117,-0.457 -0.304688,-0.3047 -0.457031,-0.7168 -0.457031,-1.2364 0,-0.5371 0.144531,-0.9629 0.433594,-1.2773 0.291014,-0.3164 0.682615,-0.4746 1.174804,-0.4746 0.441404,0 0.790037,0.1426 1.045899,0.4277 0.257809,0.2832 0.386715,0.669 0.386719,1.1572 m -0.539063,-0.1582 c -0.0039,-0.2949 -0.08692,-0.5302 -0.249023,-0.706 -0.160159,-0.1758 -0.373049,-0.2637 -0.638672,-0.2637 -0.300783,0 -0.541994,0.085 -0.723633,0.2549 -0.179689,0.1699 -0.283204,0.4092 -0.310547,0.7178 l 1.921875,-0"
         style=""
         id="path3856" />
      <path
         d="m 20.013747,1045.8119 c -0.06055,-0.035 -0.126955,-0.061 -0.199218,-0.076 -0.07032,-0.018 -0.14844,-0.026 -0.234375,-0.026 -0.30469,0 -0.539064,0.1 -0.703125,0.2988 -0.162111,0.1972 -0.243166,0.4814 -0.243164,0.8525 l 0,1.7285 -0.541993,0 0,-3.2812 0.541993,0 0,0.5097 c 0.11328,-0.1992 0.26074,-0.3466 0.442382,-0.4423 0.181639,-0.098 0.402342,-0.1465 0.66211,-0.1465 0.03711,0 0.07812,0 0.123047,0.01 0.04492,0 0.09472,0.011 0.149414,0.021 l 0.0029,0.5537"
         style=""
         id="path3858" />
    </g>
  </g>
</svg>
